<svg width="36" height="36" viewBox="0 0 36 36" fill="none" xmlns="http://www.w3.org/2000/svg">
<g clip-path="url(#clip0_92_4345)">
<path d="M16.0717 18C16.0717 18.5115 16.2748 19.002 16.6365 19.3637C16.9982 19.7254 17.4887 19.9286 18.0002 19.9286C18.5117 19.9286 19.0022 19.7254 19.3639 19.3637C19.7256 19.002 19.9288 18.5115 19.9288 18C19.9288 17.4885 19.7256 16.998 19.3639 16.6363C19.0022 16.2746 18.5117 16.0714 18.0002 16.0714C17.4887 16.0714 16.9982 16.2746 16.6365 16.6363C16.2748 16.998 16.0717 17.4885 16.0717 18V18ZM24.1074 18C24.1074 18.5115 24.3106 19.002 24.6722 19.3637C25.0339 19.7254 25.5244 19.9286 26.0359 19.9286C26.5474 19.9286 27.038 19.7254 27.3996 19.3637C27.7613 19.002 27.9645 18.5115 27.9645 18C27.9645 17.4885 27.7613 16.998 27.3996 16.6363C27.038 16.2746 26.5474 16.0714 26.0359 16.0714C25.5244 16.0714 25.0339 16.2746 24.6722 16.6363C24.3106 16.998 24.1074 17.4885 24.1074 18ZM8.03594 18C8.03594 18.5115 8.23912 19.002 8.6008 19.3637C8.96248 19.7254 9.45302 19.9286 9.96451 19.9286C10.476 19.9286 10.9665 19.7254 11.3282 19.3637C11.6899 19.002 11.8931 18.5115 11.8931 18C11.8931 17.4885 11.6899 16.998 11.3282 16.6363C10.9665 16.2746 10.476 16.0714 9.96451 16.0714C9.45302 16.0714 8.96248 16.2746 8.6008 16.6363C8.23912 16.998 8.03594 17.4885 8.03594 18V18ZM34.602 11.025C33.694 8.86741 32.3922 6.9308 30.7328 5.26741C29.085 3.61365 27.1289 2.29911 24.9752 1.39821C22.7654 0.470089 20.419 0 18.0002 0H17.9199C15.485 0.0120536 13.1266 0.494196 10.9087 1.44241C8.77344 2.35254 6.83565 3.66942 5.20335 5.31964C3.56004 6.97902 2.27031 8.90759 1.37835 11.0571C0.454238 13.283 -0.0118333 15.6496 0.000220314 18.0844C0.0138539 20.8747 0.673982 23.6238 1.92879 26.1161V32.2232C1.92879 32.7134 2.12351 33.1835 2.47012 33.5301C2.81673 33.8767 3.28683 34.0714 3.77701 34.0714H9.88817C12.3804 35.3262 15.1296 35.9864 17.9199 36H18.0042C20.4109 36 22.7453 35.5339 24.9431 34.6219C27.0859 33.7317 29.0347 32.4325 30.6806 30.7969C32.34 29.1536 33.6458 27.233 34.5578 25.0915C35.506 22.8737 35.9882 20.5152 36.0002 18.0804C36.0123 15.6335 35.5382 13.2589 34.602 11.025V11.025ZM28.531 28.6232C25.7145 31.4116 21.9779 32.9464 18.0002 32.9464H17.9319C15.5091 32.9344 13.1025 32.3317 10.977 31.1987L10.6395 31.0179H4.98236V25.3607L4.80156 25.0232C3.66852 22.8978 3.06585 20.4911 3.05379 18.0683C3.03772 14.0625 4.56852 10.3018 7.37701 7.4692C10.1815 4.63661 13.9301 3.06964 17.9359 3.05357H18.0042C20.0132 3.05357 21.9618 3.4433 23.798 4.21473C25.59 4.96607 27.1971 6.04687 28.5792 7.42902C29.9574 8.80714 31.0422 10.4183 31.7935 12.2103C32.573 14.0665 32.9627 16.0353 32.9547 18.0683C32.9306 22.0701 31.3596 25.8188 28.531 28.6232V28.6232Z" fill="#999999"/>
</g>
<defs>
<clipPath id="clip0_92_4345">
<rect width="36" height="36" fill="white"/>
</clipPath>
</defs>
</svg>
