<svg width="36" height="36" viewBox="0 0 36 36" fill="none" xmlns="http://www.w3.org/2000/svg">
<g clip-path="url(#clip0_92_4327)">
<path d="M35.4597 17.7165L19.9347 2.1995L18.8941 1.15887C18.657 0.923332 18.3363 0.791138 18.0021 0.791138C17.6679 0.791138 17.3473 0.923332 17.1101 1.15887L0.544525 17.7165C0.30157 17.9585 0.109558 18.2467 -0.0201761 18.5641C-0.14991 18.8816 -0.214738 19.2218 -0.210832 19.5647C-0.194761 20.979 0.982472 22.108 2.39676 22.108H4.10435V35.1941H31.8999V22.108H33.6436C34.3307 22.108 34.9776 21.8388 35.4637 21.3526C35.7031 21.114 35.8928 20.8303 36.0217 20.5179C36.1507 20.2054 36.2164 19.8705 36.2151 19.5325C36.2151 18.8495 35.9459 18.2026 35.4597 17.7165V17.7165ZM20.2521 32.3013H15.7521V24.1049H20.2521V32.3013ZM29.007 19.2151V32.3013H22.8235V23.1406C22.8235 22.2526 22.1043 21.5334 21.2164 21.5334H14.7878C13.8999 21.5334 13.1807 22.2526 13.1807 23.1406V32.3013H6.9972V19.2151H3.14006L18.0061 4.36111L18.9343 5.28923L32.8682 19.2151H29.007Z" fill="#999999"/>
</g>
<defs>
<clipPath id="clip0_92_4327">
<rect width="36" height="36" fill="white"/>
</clipPath>
</defs>
</svg>
