<svg width="24" height="24" viewBox="0 0 24 24" fill="none" xmlns="http://www.w3.org/2000/svg">
<g clip-path="url(#clip0_92_4356)">
<path d="M22.6504 21.1773L15.6942 14.2211C16.7736 12.8255 17.3575 11.1193 17.3575 9.32465C17.3575 7.17644 16.5192 5.16215 15.0031 3.6434C13.487 2.12465 11.4674 1.28894 9.32183 1.28894C7.1763 1.28894 5.15665 2.12733 3.64058 3.6434C2.12183 5.15948 1.28612 7.17644 1.28612 9.32465C1.28612 11.4702 2.12451 13.4898 3.64058 15.0059C5.15665 16.5247 7.17362 17.3604 9.32183 17.3604C11.1165 17.3604 12.82 16.7764 14.2156 15.6997L21.1718 22.6532C21.1922 22.6736 21.2164 22.6898 21.2431 22.7009C21.2698 22.7119 21.2983 22.7176 21.3272 22.7176C21.356 22.7176 21.3846 22.7119 21.4113 22.7009C21.4379 22.6898 21.4621 22.6736 21.4825 22.6532L22.6504 21.488C22.6708 21.4676 22.687 21.4434 22.698 21.4168C22.7091 21.3901 22.7148 21.3615 22.7148 21.3327C22.7148 21.3038 22.7091 21.2753 22.698 21.2486C22.687 21.222 22.6708 21.1977 22.6504 21.1773V21.1773ZM13.5647 13.5675C12.429 14.7005 10.9236 15.3247 9.32183 15.3247C7.72005 15.3247 6.21469 14.7005 5.07897 13.5675C3.94594 12.4318 3.32183 10.9264 3.32183 9.32465C3.32183 7.72287 3.94594 6.21483 5.07897 5.0818C6.21469 3.94876 7.72005 3.32465 9.32183 3.32465C10.9236 3.32465 12.4317 3.94608 13.5647 5.0818C14.6977 6.21751 15.3218 7.72287 15.3218 9.32465C15.3218 10.9264 14.6977 12.4345 13.5647 13.5675Z" fill="#999999"/>
</g>
<defs>
<clipPath id="clip0_92_4356">
<rect width="24" height="24" fill="white"/>
</clipPath>
</defs>
</svg>
