<svg width="161" height="128" viewBox="0 0 161 128" fill="none" xmlns="http://www.w3.org/2000/svg">
<path d="M4.35944 8.23718L10.5355 4.6714C12.5965 3.4815 15.2319 4.18764 16.4218 6.24861L23.6486 18.7658L17.4725 22.3315C15.4115 23.5214 12.7761 22.8153 11.5862 20.7543L4.35944 8.23718Z" fill="#33474F"/>
<path d="M1.48123 13.3197C0.663169 11.9028 1.14864 10.091 2.56556 9.27292L4.35945 8.23722L5.96114 11.0114L1.60168 13.5283L1.48123 13.3197Z" fill="#EEEEEE"/>
<path d="M3.18689 12.613L5.96109 11.0114L6.87633 12.5966L5.68739 13.283C4.81188 13.7885 3.69237 13.4885 3.18689 12.613V12.613Z" fill="#E0E0E0"/>
<path d="M14.6965 9.66699L17.5574 8.01526C18.7018 7.35451 20.1332 7.4571 21.1717 8.27429L25.2623 11.4931L20.0059 13.4623C18.5265 14.0165 16.8633 13.42 16.0734 12.0518L14.6965 9.66699Z" fill="#D9D9D9"/>
<circle cx="10.3819" cy="9.51595" r="1.8305" transform="rotate(-30 10.3819 9.51595)" fill="#FFFFFE"/>
<path d="M23.6486 18.7657L24.8375 18.0793C24.8375 18.0793 25.6627 18.7504 25.5239 19.2683C25.3852 19.7861 24.335 19.9547 24.335 19.9547L23.6486 18.7657Z" fill="#33474F"/>
<path d="M20.2968 24.1736L24.8752 28.7519" stroke="#EEEEEE" stroke-width="1.07726" stroke-linecap="round"/>
<path d="M26.7604 26.328L31.3387 30.9063" stroke="#EEEEEE" stroke-width="1.07726" stroke-linecap="round"/>
<path d="M23.5286 31.7144L28.107 36.2927" stroke="#EEEEEE" stroke-width="1.07726" stroke-linecap="round"/>
<circle cx="100.552" cy="67.8025" r="39.3199" stroke="#EEEEEE" stroke-width="10.7726"/>
<rect x="131.254" y="108.788" width="14.543" height="26.358" rx="7.27149" transform="rotate(-45 131.254 108.788)" fill="#FE922F"/>
<path d="M72.5833 91.0754L84.1638 82.4573L84.9717 75.7245L95.475 66.2985L96.2829 52.0248L101.669 45.8306L99.784 40.9829" stroke="#E0E0E0" stroke-width="0.538629"/>
<path d="M84.5532 82.2493L72.7034 90.8674C86.5282 100.383 114.793 103.149 123.873 85.2118C132.778 67.62 111.126 44.1862 99.9041 40.7749L102.059 45.8919L96.9417 51.2782L95.5951 66.3598L85.0918 75.5165L84.5532 82.2493Z" fill="#F4F4F4"/>
<path d="M115.206 71.2225L112.328 64.8962" stroke="black" stroke-width="1.07726" stroke-linecap="round"/>
<path d="M117.226 67.724L110.308 68.3947" stroke="black" stroke-width="1.07726" stroke-linecap="round"/>
<path d="M106.184 86.8491L103.306 80.5228" stroke="black" stroke-width="1.07726" stroke-linecap="round"/>
<path d="M108.204 83.3506L101.286 84.0213" stroke="black" stroke-width="1.07726" stroke-linecap="round"/>
<ellipse cx="100.878" cy="70.7243" rx="5.92492" ry="3.23177" transform="rotate(120 100.878 70.7243)" fill="#334750"/>
<ellipse cx="110.813" cy="59.9789" rx="4.03972" ry="0.538629" transform="rotate(120 110.813 59.9789)" fill="#D9D9D9"/>
<ellipse cx="95.7318" cy="86.101" rx="4.03972" ry="0.538629" transform="rotate(120 95.7318 86.101)" fill="#D9D9D9"/>
<path d="M39.1488 73.7274L41.8419 76.9592L47.9379 75.4912L60.694 81.8068L67.9132 70.5484L73.0824 72.9195L81.4963 67.8025L82.2391 68.3517" stroke="#E0E0E0" stroke-width="0.538629" stroke-linecap="round"/>
<path d="M61.8281 99.8509C40.0675 99.8509 37.5001 82.2557 38.9364 73.4581L41.8989 76.9592L47.8238 75.6126L60.7509 81.8068L68.0224 70.7649L73.1393 72.9194L81.4881 68.0718C81.6676 68.0718 82.1883 68.1256 82.8347 68.3411C82.8347 69.6877 89.0289 99.8509 61.8281 99.8509Z" fill="#F4F4F4"/>
</svg>
