<svg width="139" height="138" viewBox="0 0 139 138" fill="none" xmlns="http://www.w3.org/2000/svg">
<path d="M138.214 94.896C138.214 96.5419 107.274 97.8756 69.1072 97.8756C30.9402 97.8756 0 96.5419 0 94.896C0 93.2507 30.9402 91.9164 69.1072 91.9164C107.274 91.9164 138.214 93.2507 138.214 94.896Z" fill="#DDD0D0"/>
<path d="M76.8661 55.0379C76.8661 55.0379 84.0683 68.7543 78.2298 70.5728C72.3899 72.3906 70.4282 68.4468 70.4282 68.4468L70.5619 56.765L76.8661 55.0379Z" fill="#F48462"/>
<path d="M114.102 93.4103H19.7058C18.3667 93.4103 17.2812 92.3248 17.2812 90.9857C17.2812 89.6473 18.3667 88.5611 19.7058 88.5611H114.102C115.441 88.5611 116.526 89.6473 116.526 90.9857C116.526 92.3248 115.441 93.4103 114.102 93.4103Z" fill="#FE922F"/>
<path d="M111.327 77.2869C111.327 77.2869 98.0521 61.2924 99.3817 60.5704C100.712 59.8476 106.075 66.8371 106.075 66.8371C106.075 66.8371 100.015 55.203 100.964 54.7278C101.914 54.2532 112.013 73.4093 112.013 73.4093C112.013 73.4093 108.942 52.0011 110.07 51.6268C111.198 51.2531 114.622 72.9627 114.622 72.9627C114.622 72.9627 117.295 55.52 118.576 56.4276C119.857 57.3351 117.317 72.5781 117.317 72.5781C117.317 72.5781 122.98 60.0754 122.766 61.9668C122.552 63.8596 120.362 73.0343 120.362 73.0343C120.362 73.0343 129.695 57.1039 129.436 59.6915C129.177 62.2791 120.958 77.728 120.958 77.728L111.327 77.2869Z" fill="#7B9B75"/>
<path d="M109.126 93.7008L120.023 93.5658C120.614 93.5583 121.103 93.1314 121.154 92.5792L122.624 76.6829C122.683 76.0481 122.145 75.5047 121.466 75.5135L107.235 75.6901C106.556 75.6983 106.031 76.2554 106.106 76.8888L107.97 92.7428C108.035 93.2944 108.536 93.7083 109.126 93.7008Z" fill="#AA8888"/>
<path d="M111.539 93.6706L122.435 93.5356C123.026 93.5281 123.515 93.102 123.567 92.549L125.036 76.6528C125.095 76.018 124.557 75.4745 123.878 75.4834L109.647 75.6593C108.968 75.6682 108.444 76.2252 108.518 76.8587L110.383 92.7126C110.448 93.2643 110.948 93.6781 111.539 93.6706Z" fill="#B79A9A"/>
<path d="M69.0128 89.5299H59.6151L59.4883 69.0156H70.1085L69.0128 89.5299Z" fill="#107CC7"/>
<path d="M51.5311 72.0334C51.5311 72.0334 29.7963 77.7628 28.5274 86.0662C27.2578 94.3695 41.6704 96.3714 48.9681 96.8896C56.2664 97.4085 59.4881 94.2079 59.4881 94.2079L63.6043 69.0156L51.5311 72.0334Z" fill="#107CC7"/>
<path d="M77.9072 72.0334C77.9072 72.0334 99.642 77.7628 100.912 86.0662C102.18 94.3695 86.2283 96.3714 78.9306 96.8896C71.633 97.4085 70.7534 93.522 70.7534 93.522L65.834 69.0156L77.9072 72.0334Z" fill="#107CC7"/>
<path d="M74.5715 71.1996C74.5715 71.1996 73.4921 46.5936 68.0163 44.5679C62.0285 42.3533 52.763 43.7681 50.8675 47.2011C48.9721 50.6341 52.5224 71.7866 52.5224 71.7866C52.5224 71.7866 64.3828 73.1612 74.5715 71.1996Z" fill="#FE922F"/>
<path d="M58.5396 40.3466L58.1162 44.5842C58.1162 44.5842 58.4687 46.0236 60.9281 46.4729C62.7595 46.8077 63.74 46.3113 63.74 46.3113L63.697 44.139L63.6527 42.0205L59.274 40.588L58.5396 40.3466Z" fill="#F48462"/>
<path d="M59.2734 40.5878C59.2728 40.7044 59.3028 40.8456 59.356 41.0092C60.0923 43.2204 62.639 43.9363 63.6965 44.1388L63.6522 42.0204L59.2734 40.5878Z" fill="black"/>
<path d="M65.5621 32.4551C65.5621 32.4551 67.2551 37.9909 66.0837 40.8559C64.9116 43.7196 62.2681 42.9417 60.7204 42.1828C59.1733 41.4246 58.5385 40.3473 58.5385 40.3473C58.5385 40.3473 56.9717 40.6848 56.1262 39.1664C55.2793 37.6472 56.0866 36.1097 56.9901 35.8404C57.8935 35.571 58.8453 36.3108 58.8453 36.3108L58.2201 34.6867C58.2201 34.6867 62.4952 27.2949 65.5621 32.4551Z" fill="#F48462"/>
<path d="M64.5655 39.1247L64.4959 39.1103C64.41 39.0715 64.3718 38.9706 64.41 38.8847C64.8273 37.9553 64.2321 36.818 64.2252 36.8064C64.1816 36.7233 64.213 36.6203 64.2955 36.5753C64.3787 36.5323 64.4816 36.563 64.5259 36.6455C64.5546 36.698 65.2078 37.9403 64.7216 39.0244C64.693 39.0878 64.6309 39.1247 64.5655 39.1247Z" fill="black"/>
<path d="M58.3394 38.7551L58.2024 38.6862L56.958 36.9953C56.9021 36.9196 56.9185 36.8132 56.9942 36.7573C57.0699 36.7007 57.1762 36.7171 57.2321 36.7934L58.4765 38.4837C58.5324 38.5594 58.516 38.6664 58.441 38.7223L58.3394 38.7551Z" fill="black"/>
<path d="M56.8751 38.1639C56.7831 38.1639 56.7074 38.091 56.7047 37.9982C56.7019 37.9041 56.7763 37.8257 56.8697 37.823L57.8774 37.7944C57.9681 37.7937 58.0499 37.866 58.0533 37.96C58.0561 38.0541 57.9817 38.1326 57.8876 38.1353L56.8799 38.1639H56.8751Z" fill="black"/>
<path d="M58.8448 36.3108C58.8448 36.3108 59.3446 36.7342 59.815 36.1649C60.2855 35.5949 59.6452 33.6632 59.6452 33.6632C59.6452 33.6632 61.2298 34.2333 62.3037 33.8167C63.3769 33.4014 64.0533 31.9785 64.0533 31.9785C64.0533 31.9785 67.2027 33.8889 67.8668 31.6409C68.9243 28.0661 63.9919 28.8966 63.9919 28.8966C63.9919 28.8966 63.859 27.4811 60.7894 28.2072C57.9918 28.8679 57.717 32.2307 57.717 32.2307C57.717 32.2307 56.667 31.5455 56.144 33.2555C55.6204 34.9656 56.457 36.1588 56.457 36.1588C56.457 36.1588 57.7013 35.6201 58.8448 36.3108Z" fill="black"/>
<path d="M61.7362 34.8762L61.6401 34.8469C61.5623 34.7937 61.5419 34.688 61.5951 34.6096C62.0369 33.9592 62.8953 34.249 62.9315 34.2612C63.0201 34.2926 63.0671 34.3887 63.0365 34.4774C63.0058 34.5667 62.9096 34.6124 62.8196 34.583C62.7937 34.5749 62.1726 34.3683 61.8767 34.8019L61.7362 34.8762Z" fill="black"/>
<path d="M65.8659 34.7672L65.7384 34.7099C65.6566 34.6178 65.3879 34.3799 65.1315 34.3799C65.002 34.3805 64.8881 34.4399 64.7818 34.5606C64.7197 34.6315 64.612 34.6376 64.5411 34.5762C64.4702 34.5142 64.464 34.4065 64.5261 34.3356C64.6986 34.1392 64.9018 34.0396 65.1309 34.0389C65.5945 34.0389 65.977 34.4651 65.9934 34.4835C66.0554 34.5537 66.0493 34.6615 65.9791 34.7235L65.8659 34.7672Z" fill="black"/>
<path d="M79.0693 57.8786C79.0693 57.8786 76.3522 59.2423 73.4244 61.6771C70.3228 64.2558 68.0161 44.5679 68.0161 44.5679C68.0161 44.5679 74.5713 47.4241 79.0693 57.8786Z" fill="#FE922F"/>
<path d="M73.7017 61.3866C73.6103 61.3866 73.5346 61.3143 73.5312 61.2229C73.3955 57.8063 72.3319 52.4007 72.321 52.3468C72.3032 52.2541 72.3633 52.1641 72.4553 52.1464C72.546 52.13 72.6373 52.188 72.6558 52.28C72.6667 52.3346 73.7351 57.7667 73.8721 61.2093C73.8756 61.3034 73.8026 61.3825 73.7085 61.3866H73.7017Z" fill="white"/>
<path d="M62.0247 46.8403C61.5562 46.8403 61.0135 46.7844 60.3917 46.6385C58.0523 46.091 57.6261 44.6741 57.6091 44.6141C57.5832 44.5235 57.6364 44.4294 57.7271 44.4041C57.8177 44.3782 57.9118 44.4314 57.9371 44.5214C57.9521 44.5732 58.3387 45.808 60.4701 46.3071C62.9649 46.8915 64.1172 45.941 64.1281 45.9314C64.2004 45.8714 64.3074 45.879 64.3681 45.9499C64.4295 46.0208 64.422 46.1278 64.3511 46.1892C64.3122 46.2233 63.5772 46.8403 62.0247 46.8403Z" fill="white"/>
<path d="M63.3439 40.6691L63.2975 40.6623C63.2607 40.6527 62.4016 40.4018 62.0818 39.7104C62.0422 39.6252 62.0791 39.5236 62.165 39.4847C62.2509 39.4452 62.3518 39.482 62.3913 39.5679C62.6457 40.1182 63.3827 40.3329 63.3902 40.335C63.4809 40.3602 63.5334 40.455 63.5082 40.545C63.4864 40.6207 63.4182 40.6691 63.3439 40.6691Z" fill="black"/>
<path d="M50.5288 94.0218C50.5288 94.0218 55.153 97.373 55.2737 97.8052C55.3937 98.2368 57.2333 107.09 58.5669 108.154C59.9013 109.217 61.1375 108.509 61.1375 108.509C61.1375 108.509 64.1321 88.7519 63.8641 88.0346C63.5968 87.3173 55.1891 85.6502 55.1891 85.6502L50.5288 94.0218Z" fill="#F48462"/>
<path d="M60.4312 108.721L62.628 87.4339L65.4992 87.8784L62.853 109.12L60.4312 108.721Z" fill="black"/>
<path d="M56.8914 104.26L56.0957 101.308L61.2838 100.453L61.5913 103.162L56.8914 104.26Z" fill="black"/>
<path d="M79.0692 93.8317C79.0692 93.8317 74.445 97.1836 74.3243 97.6152C74.2043 98.0468 72.3647 106.9 71.0304 107.963C69.6953 109.028 68.4598 108.32 68.4598 108.32C68.4598 108.32 65.4659 88.5611 65.7332 87.8445C66.0012 87.1272 74.4095 85.4601 74.4095 85.4601L79.0692 93.8317Z" fill="#F48462"/>
<path d="M69.1671 108.53L66.9695 87.2437L64.0977 87.689L66.7445 108.93L69.1671 108.53Z" fill="black"/>
<path d="M72.7059 104.07L73.5016 101.117L68.3136 100.263L68.0054 102.973L72.7059 104.07Z" fill="black"/>
<path d="M67.2319 83.8728L74.3237 97.6151L84.2512 93.7178L80.1043 83.8728H67.2319Z" fill="#107CC7"/>
<path d="M62.6539 84.5355L54.8946 98.2772L45.7314 94.3798L49.8784 84.5355H62.6539Z" fill="#107CC7"/>
<path d="M21.312 93.6756H13.25V80.5905C13.25 78.3643 15.0548 76.5595 17.281 76.5595C19.5072 76.5595 21.312 78.3643 21.312 80.5905V93.6756Z" fill="#A37B90"/>
<path d="M18.8158 73.8872H15.7476V78.4139H18.8158V73.8872Z" fill="#A37B90"/>
<path d="M19.1467 74.4559H15.4157C14.8137 74.4559 14.3262 73.9677 14.3262 73.3664C14.3262 72.765 14.8137 72.2775 15.4157 72.2775H19.1467C19.7488 72.2775 20.2356 72.765 20.2356 73.3664C20.2356 73.9677 19.7488 74.4559 19.1467 74.4559Z" fill="#FE922F"/>
<path d="M14.3272 87.3904C14.2331 87.3904 14.1567 87.3133 14.1567 87.2199V79.897C14.1567 79.8036 14.2331 79.7266 14.3272 79.7266C14.4213 79.7266 14.4977 79.8036 14.4977 79.897V87.2199C14.4977 87.3133 14.4213 87.3904 14.3272 87.3904Z" fill="white"/>
<path d="M56.8655 73.9015C56.8655 73.9015 61.3267 72.9967 61.7358 73.3288C62.1449 73.6608 60.9271 79.2723 60.9271 79.2723L54.1934 79.1844V75.4834L56.8655 73.9015Z" fill="#F48462"/>
<path d="M49.8159 81.4577H79.01C79.5534 81.4577 79.9939 81.0179 79.9939 80.4744V80.1683C79.9939 79.6249 79.5534 79.1844 79.01 79.1844H49.8159C49.2725 79.1844 48.832 79.6249 48.832 80.1683V80.4744C48.832 81.0179 49.2725 81.4577 49.8159 81.4577Z" fill="black"/>
<path d="M56.8286 81.4536H78.363L84.5131 67.5414H63.8276C63.3122 67.5414 62.8444 67.8455 62.6358 68.3181L56.8286 81.4536Z" fill="white"/>
<path d="M58.6997 81.4536H80.234L85.7228 69.0381C86.0344 68.3331 85.5189 67.5414 84.7491 67.5414H64.8505L58.6997 81.4536Z" fill="#68B6D8"/>
<path d="M70.4282 74.4969C70.4282 75.5074 71.2471 76.3262 72.2576 76.3262C73.2674 76.3262 74.0863 75.5074 74.0863 74.4969C74.0863 73.4871 73.2674 72.6689 72.2576 72.6689C71.2471 72.6689 70.4282 73.4871 70.4282 74.4969Z" fill="white"/>
<path d="M86.5162 78.5102C85.7982 78.5102 84.1154 79.9134 83.1506 80.7991C84.4284 80.5161 86.5318 79.8998 86.8298 79.1279C86.8973 78.9534 86.8598 78.7761 86.7132 78.5859C86.6914 78.5572 86.6505 78.519 86.553 78.5115L86.5162 78.5102ZM82.6004 81.2545C82.537 81.2545 82.4777 81.2191 82.4483 81.1618C82.4142 81.095 82.4279 81.0138 82.4811 80.962C82.7784 80.6723 85.3795 78.1699 86.525 78.1699L86.5768 78.1713C86.748 78.1843 86.8884 78.2552 86.9832 78.3786C87.26 78.7365 87.2253 79.0509 87.1482 79.2506C86.6648 80.5004 83.0415 81.1782 82.6304 81.2518L82.6004 81.2545Z" fill="#FE922F"/>
<path d="M69.1546 83.6846C69.0796 83.6846 69.0114 83.6355 68.9909 83.5598C68.965 83.4691 69.0182 83.375 69.1089 83.3498C69.1941 83.3266 77.7068 80.9845 89.2857 80.2884C89.3887 80.2891 89.4609 80.3545 89.4664 80.4486C89.4718 80.5427 89.4003 80.6232 89.3068 80.6293C77.7661 81.3227 69.2848 83.6546 69.2003 83.6785L69.1546 83.6846Z" fill="#FE922F"/>
<path d="M61.1374 84.706L61.0795 84.6958C60.9868 84.6623 51.6661 81.3221 40.1322 80.6293C40.0381 80.6232 39.9665 80.5427 39.972 80.4486C39.9774 80.3545 40.0449 80.2877 40.1527 80.2884C51.7377 80.9852 61.1027 84.3419 61.1961 84.3753C61.284 84.408 61.3297 84.5049 61.2977 84.5935C61.2724 84.663 61.207 84.706 61.1374 84.706Z" fill="#FE922F"/>
<path d="M42.9324 78.4862C42.8055 78.493 42.7646 78.5312 42.7421 78.5591C42.5935 78.7473 42.5526 78.9239 42.618 79.0992C42.9051 79.8751 44.9997 80.5194 46.2727 80.8208C45.3174 79.9194 43.6462 78.4862 42.9324 78.4862ZM46.8202 81.2838C46.377 81.2019 42.7633 80.4737 42.2982 79.2178C42.2232 79.0167 42.1939 78.7023 42.4755 78.3478C42.5717 78.2257 42.7135 78.1569 42.8846 78.1466L42.9255 78.146C44.0649 78.146 46.6463 80.6987 46.9402 80.9933C46.9934 81.0465 47.0056 81.1276 46.9702 81.1938C46.9402 81.2504 46.8822 81.2838 46.8202 81.2838Z" fill="#FE922F"/>
<path d="M62.6543 37.0649C62.5603 37.0649 62.4839 36.9885 62.4839 36.8944V35.8328C62.4839 35.7394 62.5603 35.6624 62.6543 35.6624C62.7484 35.6624 62.8248 35.7394 62.8248 35.8328V36.8944C62.8248 36.9885 62.7484 37.0649 62.6543 37.0649Z" fill="black"/>
<path d="M65.4986 37.0649C65.4045 37.0649 65.3281 36.9885 65.3281 36.8944V35.8328C65.3281 35.7394 65.4045 35.6624 65.4986 35.6624C65.5927 35.6624 65.669 35.7394 65.669 35.8328V36.8944C65.669 36.9885 65.5927 37.0649 65.4986 37.0649Z" fill="black"/>
<path d="M43.7805 55.6326C43.7805 55.6326 38.1867 63.7962 43.9107 70.2655C49.4786 76.5595 54.1935 79.1845 54.1935 79.1845L56.8656 73.9017L50.3097 63.1948L50.2504 62.3228C48.3133 59.3854 46.651 57.6672 43.7805 55.6326Z" fill="#F48462"/>
<path d="M77.8844 74.578C78.2001 74.2535 78.6045 74.0339 79.034 73.8921C80.487 73.4121 84.7962 72.7868 85.6076 74.1867C86.3849 75.5292 84.0019 75.9499 84.0019 75.9499C84.0019 75.9499 85.9901 75.9949 85.4964 77.3388C85.0839 78.4624 83.7994 78.4938 83.7994 78.4938C83.7994 78.4938 85.8626 78.7379 84.6653 80.1677C83.4687 81.5961 78.9747 81.858 77.4924 81.3711C76.0108 80.885 77.6485 79.2363 77.6485 79.2363C77.6485 79.2363 76.1199 78.4999 76.3824 77.6108C76.6599 76.6685 78.029 76.6822 78.029 76.6822C78.029 76.6822 76.7499 75.744 77.8844 74.578Z" fill="#F48462"/>
<path d="M78.5319 76.8779C78.448 76.8779 78.3751 76.8158 78.3635 76.7306C78.3505 76.6372 78.4153 76.5513 78.5087 76.5383L83.9777 75.7808C84.0677 75.7733 84.1563 75.8333 84.1693 75.9267C84.1822 76.0201 84.1174 76.106 84.024 76.119L78.5557 76.8765L78.5319 76.8779Z" fill="black"/>
<path d="M78.3011 79.3563C78.2165 79.3563 78.1436 79.2935 78.1327 79.2076C78.1211 79.1142 78.1865 79.029 78.2806 79.0167L83.7769 78.3246C83.8676 78.3151 83.9555 78.3792 83.9678 78.4719C83.9794 78.5653 83.9133 78.6506 83.8199 78.6628L78.3229 79.3549L78.3011 79.3563Z" fill="black"/>
<path d="M40.6147 59.8109C40.6147 59.8109 42.888 52.3135 48.2288 48.1059C51.9789 45.1515 54.6373 44.5679 54.6373 44.5679L52.5161 65.4422L40.6147 59.8109Z" fill="#FE922F"/>
<path d="M52.3194 64.3812L52.2785 64.3764C52.1872 64.3532 52.1319 64.2612 52.1544 64.1698L53.0722 60.4913C53.0947 60.4006 53.186 60.3413 53.2788 60.3679C53.3701 60.3904 53.426 60.4831 53.4029 60.5738L52.4851 64.2523C52.466 64.3293 52.3965 64.3812 52.3194 64.3812Z" fill="white"/>
</svg>
