<svg width="139" height="139" viewBox="0 0 139 139" fill="none" xmlns="http://www.w3.org/2000/svg">
<path d="M108.464 106.443C108.464 107.833 88.2055 108.96 63.2179 108.96C38.2296 108.96 17.9722 107.833 17.9722 106.443C17.9722 105.053 38.2296 103.926 63.2179 103.926C88.2055 103.926 108.464 105.053 108.464 106.443Z" fill="#DDD0D0"/>
<path d="M99.7706 86.2025H49.2457C46.4032 86.2025 44.0981 83.8974 44.0981 81.0543V33.8329C44.0981 30.9897 46.4032 28.6846 49.2457 28.6846H99.7706C102.614 28.6846 104.919 30.9897 104.919 33.8329V81.0543C104.919 83.8974 102.614 86.2025 99.7706 86.2025Z" fill="#5A6991"/>
<path d="M89.052 86.2025H38.5265C35.6834 86.2025 33.3789 83.8974 33.3789 81.0543V33.8329C33.3789 30.9897 35.6834 28.6846 38.5265 28.6846H89.052C91.8952 28.6846 94.1996 30.9897 94.1996 33.8329V81.0543C94.1996 83.8974 91.8952 86.2025 89.052 86.2025Z" fill="#6876AA"/>
<path d="M104.827 84.1851V87.643C104.827 88.5515 104.769 89.4353 104.658 90.2805C104.094 94.56 102.196 97.7108 99.9361 97.7108H44.8427C42.5829 97.7108 40.6802 94.56 40.1162 90.2805C40.0052 89.4353 39.9473 88.5515 39.9473 87.643V84.1851C39.9473 78.6267 42.1377 74.1173 44.8427 74.1173H99.9361C102.637 74.1173 104.827 78.6267 104.827 84.1851Z" fill="#364568"/>
<path d="M97.0154 84.3281V87.7866C97.0154 88.6945 96.9563 89.5789 96.8423 90.4241C96.265 94.7036 94.3195 97.8538 92.0048 97.8538H35.5728C33.2587 97.8538 31.3095 94.7036 30.7322 90.4241C30.6182 89.5789 30.5591 88.6945 30.5591 87.7866V84.3281C30.5591 78.7697 32.8032 74.2609 35.5728 74.2609H92.0048C94.7713 74.2609 97.0154 78.7697 97.0154 84.3281Z" fill="#107CC7"/>
<path d="M40.7235 107.28H40.3187C39.3239 107.28 38.4829 106.545 38.3502 105.56L36.938 95.0795H43.1594L42.7082 105.381C42.6611 106.443 41.7864 107.28 40.7235 107.28Z" fill="#107CC7"/>
<path d="M52.9144 107.28H52.5096C51.5148 107.28 50.6745 106.545 50.5411 105.56L49.1289 95.0795H55.351L54.8991 105.381C54.852 106.443 53.9773 107.28 52.9144 107.28Z" fill="#107CC7"/>
<path d="M87.1317 107.28H87.5365C88.5313 107.28 89.3723 106.545 89.5056 105.56L90.9178 95.0795H84.6958L85.1476 105.381C85.1941 106.443 86.0688 107.28 87.1317 107.28Z" fill="#107CC7"/>
<path d="M99.4521 106.555H99.8569C100.851 106.555 101.693 105.82 101.825 104.834L103.237 94.3549H97.0161L97.4673 104.656C97.5138 105.719 98.3885 106.555 99.4521 106.555Z" fill="#364568"/>
<path d="M43.93 73.1823C43.93 78.5061 39.6143 82.8224 34.2899 82.8224C28.9661 82.8224 24.6504 78.5061 24.6504 73.1823C24.6504 67.8585 28.9661 63.5428 34.2899 63.5428C39.6143 63.5428 43.93 67.8585 43.93 73.1823Z" fill="#6876AA"/>
<path d="M38.5703 73.1822C38.5703 75.5458 36.6543 77.4618 34.2908 77.4618C31.9272 77.4618 30.0112 75.5458 30.0112 73.1822C30.0112 70.8187 31.9272 68.9027 34.2908 68.9027C36.6543 68.9027 38.5703 70.8187 38.5703 73.1822Z" fill="#107CC7"/>
<path d="M83.4634 77.6681C83.4634 79.175 76.474 80.396 67.8516 80.396C59.2292 80.396 52.2393 79.175 52.2393 77.6681C52.2393 76.1617 59.2292 74.9401 67.8516 74.9401C76.474 74.9401 83.4634 76.1617 83.4634 77.6681Z" fill="#364568"/>
<path d="M49.5599 93.3186C49.5599 93.3186 50.5637 99.4392 50.3266 99.8645C50.0895 100.289 44.7392 108.523 44.9546 110.364C45.1705 112.204 46.6654 112.603 46.6654 112.603C46.6654 112.603 64.0804 99.654 64.423 98.8969C64.7645 98.1392 59.5541 90.4247 59.5541 90.4247L49.5599 93.3186Z" fill="#F48462"/>
<path d="M45.959 112.225L63.9283 97.4882L65.8032 100.027L47.522 114.386L45.959 112.225Z" fill="black"/>
<path d="M46.6401 106.08L48.284 103.194L52.9388 106.502L51.1043 108.827L46.6401 106.08Z" fill="black"/>
<path d="M27.6773 98.6682C27.6773 98.6682 24.3817 103.923 23.9226 104.085C23.4636 104.247 14.0044 106.883 12.9487 108.406C11.893 109.929 12.7502 111.217 12.7502 111.217C12.7502 111.217 34.3765 113.025 35.1342 112.683C35.8919 112.341 37.5207 99.4042 37.5207 99.4042L27.6773 98.6682Z" fill="#F48462"/>
<path d="M12.4709 110.466L35.6958 111.299L35.4219 114.443L12.2139 113.12L12.4709 110.466Z" fill="black"/>
<path d="M17.0464 106.307L20.1882 105.231L21.4918 110.79L18.5781 111.32L17.0464 106.307Z" fill="black"/>
<path d="M52.7792 71.3538L63.9009 92.5301L48.6734 99.4042L41.9609 86.5928L45.4013 71.9746L52.7792 71.3538Z" fill="#A37B90"/>
<path d="M73.2186 63.2593C73.2186 63.2593 74.2345 73.639 71.3822 74.9674C68.5288 76.2957 49.3741 78.3239 48.3166 79.154C47.2591 79.9841 40.1617 103.067 40.1617 103.067L22.7969 101.514C22.7969 101.514 29.0726 70.8266 33.6411 68.0039C37.0742 65.8823 56.0914 63.2593 56.0914 63.2593H73.2186Z" fill="#A37B90"/>
<path d="M44.0604 91.8298L44.0055 91.8195C43.9276 91.7893 43.8896 91.7019 43.9192 91.624C44.0815 91.209 47.8917 81.4404 48.6288 80.5609C49.369 79.6771 54.9866 78.3397 55.6255 78.1906C55.7057 78.1701 55.7877 78.222 55.8058 78.3029C55.8257 78.3837 55.7751 78.4651 55.6936 78.4838C53.987 78.8844 49.4318 80.0722 48.8599 80.7545C48.2952 81.4283 45.5655 88.2307 44.2009 91.7338C44.1774 91.7936 44.1201 91.8298 44.0604 91.8298Z" fill="#FE922F"/>
<path d="M46.1693 76.6927C46.0915 76.6927 45.989 76.7247 45.8732 76.8719C45.735 77.0456 45.6891 77.2441 45.7308 77.4764C45.9142 78.4923 47.6594 79.7597 48.4436 80.2846C47.9592 79.0376 46.9548 76.8176 46.2224 76.6976L46.1693 76.6927ZM48.7441 80.8088L48.6663 80.7871C48.545 80.7135 45.6946 78.9719 45.434 77.5301C45.3761 77.2115 45.4448 76.9274 45.6361 76.6849C45.8605 76.4008 46.1054 76.3724 46.2713 76.4002C47.4205 76.589 48.7398 80.1965 48.8864 80.6073C48.9082 80.667 48.8894 80.7346 48.84 80.775L48.7441 80.8088Z" fill="#FE922F"/>
<path d="M58.6654 34.7896L57.0305 36.5469C57.0305 36.5469 55.2696 40.6707 53.5672 40.7522C51.8642 40.833 51.8286 38.2891 51.8286 38.2891L52.9344 32.8115L55.8318 33.8726C55.8318 33.8726 60.3008 33.0329 58.6654 34.7896Z" fill="#F48462"/>
<path d="M53.3761 35.7861L56.9082 37.6315C57.284 37.8282 57.7479 37.6828 57.944 37.3064L61.7584 30.0099C61.955 29.6335 61.8097 29.1696 61.4332 28.9729L57.9017 27.1269C57.5259 26.9309 57.062 27.0763 56.8647 27.4521L53.0515 34.7491C52.8549 35.125 53.0002 35.5895 53.3761 35.7861Z" fill="black"/>
<path d="M53.9124 36.0666L57.4433 37.912C57.8198 38.1087 58.2843 37.9633 58.4803 37.5875L62.2941 30.2904C62.4908 29.914 62.3448 29.4501 61.969 29.2534L58.4381 27.408C58.0617 27.2114 57.5971 27.3568 57.4011 27.7326L53.5873 35.0296C53.3912 35.4055 53.5366 35.87 53.9124 36.0666Z" fill="#68B6D8"/>
<path d="M55.7451 35.5533C55.5714 35.8857 55.6709 36.2814 55.9677 36.4359C56.2639 36.5909 56.6458 36.4473 56.8195 36.1149C56.9933 35.7819 56.8937 35.3874 56.5969 35.2318C56.3007 35.0773 55.9189 35.2209 55.7451 35.5533Z" fill="black"/>
<path d="M50.8769 32.6601C50.8769 32.6601 49.8797 40.3203 51.6183 40.3203C53.3563 40.3203 55.9437 36.8081 54.0639 34.4469C52.1848 32.0858 50.8769 32.6601 50.8769 32.6601Z" fill="#F48462"/>
<path d="M67.3318 27.7434C67.3318 27.7434 73.1544 23.0223 78.2876 32.193C83.4207 41.3632 78.2973 47.1262 71.7706 44.6293C65.2451 42.133 66.9686 30.4207 66.9686 30.4207L67.3318 27.7434Z" fill="black"/>
<path d="M58.7719 31.2509C58.7719 31.2509 57.7271 28.8131 57.9267 27.7435C58.127 26.6733 62.3667 23.5267 65.9193 25.2351C69.4725 26.9442 69.6559 31.6448 68.8264 33.5782C66.6915 38.5563 62.4084 36.2018 62.4084 36.2018C62.4084 36.2018 55.5626 34.0246 58.7719 31.2509Z" fill="black"/>
<path d="M73.5732 63.8944C73.5732 63.8944 73.5618 44.4085 72.4113 43.0904C68.8618 39.0238 60.3449 37.6586 56.1975 40.754C53.6011 42.691 53.9848 48.5457 54.1054 57.2381C54.1736 62.1293 54.3654 63.8944 54.3654 63.8944H73.5732Z" fill="#FE922F"/>
<path d="M59.3241 36.9167L59.3198 37.0139L59.3023 38.8447L59.2836 40.2799C59.2836 40.2799 59.1437 40.6063 60.8165 40.5882C63.0588 40.5544 63.8304 39.6332 63.8304 39.6332L64.1061 36.2815L63.422 36.3738L59.3241 36.9167Z" fill="#F48462"/>
<path d="M59.3192 37.0137L59.3018 38.8446C60.3949 38.771 62.3959 38.4073 63.2863 36.7423C63.3551 36.6071 63.4021 36.4841 63.4208 36.3809L59.3265 36.9866L59.3192 37.0137Z" fill="black"/>
<path d="M59.081 28.2339C59.081 28.2339 56.7476 32.8784 57.3526 35.59C57.9577 38.3017 60.4142 38.0121 61.8982 37.5742C63.3828 37.1356 64.1067 36.279 64.1067 36.279C64.1067 36.279 65.4423 36.8135 66.4202 35.5973C67.3981 34.3811 66.9161 32.8983 66.1572 32.5237C65.3983 32.1491 64.4445 32.66 64.4445 32.66L65.2427 31.3172C65.2427 31.3172 62.5738 24.1299 59.081 28.2339Z" fill="#F48462"/>
<path d="M64.4448 32.66C64.4448 32.66 62.4184 31.4982 61.7379 29.9677C61.0574 28.4372 61.0647 27.6855 61.0647 27.6855C61.0647 27.6855 60.7142 28.652 59.9468 28.8474C59.1789 29.0423 58.7072 29.0459 58.7072 29.0459L58.1582 30.4177L58.6287 27.1088C58.6287 27.1088 60.7323 26.1086 61.0068 26.1219C61.2813 26.1346 64.7162 26.9188 64.9068 27.1366C65.0975 27.355 66.0627 30.0974 66.0627 30.0974L66.0814 31.316L64.4448 32.66Z" fill="black"/>
<path d="M54.7193 56.1215C54.7193 56.1215 48.7494 60.1887 45.0912 57.9904C40.6476 55.3216 44.3227 44.405 45.455 41.9262C46.5873 39.4474 48.9407 35.8707 48.9407 35.8707L55.4269 40.3203L54.4888 47.7338L54.7193 56.1215Z" fill="#FE922F"/>
<path d="M52.1848 32.0857C52.1848 32.0857 50.1126 30.9582 51.184 30.2289C52.2566 29.4996 56.3799 30.6096 56.325 31.9524C56.2701 33.2947 52.1848 32.0857 52.1848 32.0857Z" fill="#F48462"/>
<path d="M51.6954 33.9746C51.6954 33.9746 49.6232 32.8477 50.6958 32.1184C51.7672 31.389 55.8905 32.499 55.8356 33.8413C55.7807 35.1835 51.6954 33.9746 51.6954 33.9746Z" fill="#F48462"/>
<path d="M52.3441 35.9828C51.815 35.949 51.2956 35.7958 50.8576 35.4966C50.4667 35.2293 50.1784 34.8626 50.591 34.4638C51.4156 33.6663 55.1782 34.0126 55.3326 35.1913C55.4484 36.0703 53.3962 36.0498 52.3441 35.9828Z" fill="#F48462"/>
<path d="M57.6793 58.9399C57.6793 58.9399 56.8564 58.9393 55.7772 58.6986C54.6979 58.4579 50.6465 59.1348 49.2541 59.3562C47.8618 59.5776 44.6434 61.7252 45.1115 62.1269C45.5803 62.5287 48.7233 61.5219 48.7233 61.5219C48.7233 61.5219 46.3724 64.1448 46.8254 64.581C47.2791 65.0178 48.2123 64.3741 48.2123 64.3741C48.2123 64.3741 47.4661 65.1589 48.2738 65.3652C49.0822 65.571 51.8723 63.1736 51.8723 63.1736C51.8723 63.1736 50.7128 65.5414 51.2744 65.7338C51.8355 65.9269 53.7237 63.7099 53.7237 63.7099C53.7237 63.7099 56.4908 65.4014 57.9278 63.8673C59.3642 62.3327 59.6568 61.1877 59.6568 61.1877L57.6793 58.9399Z" fill="#F48462"/>
<path d="M48.1787 64.207L48.2716 64.1539L50.8041 61.3125C50.8668 61.2432 50.8608 61.1358 50.7909 61.073C50.7209 61.0109 50.6135 61.0169 50.5513 61.0869L48.0183 63.9277C47.9561 63.9976 47.9628 64.105 48.0321 64.1672L48.1787 64.207Z" fill="black"/>
<path d="M48.7564 61.6884L48.8542 61.6299L49.6282 60.6894C49.6885 60.6164 49.6776 60.5096 49.6053 60.4499C49.5329 60.3908 49.4255 60.4011 49.3664 60.4735L48.5918 61.4139C48.5327 61.4863 48.5423 61.5937 48.6153 61.6528L48.7564 61.6884Z" fill="black"/>
<path d="M69.7316 40.9766C69.7316 40.9766 78.8317 45.2133 77.3061 58.1037C76.2498 67.0338 56.4659 65.2246 56.4659 65.2246L56.1968 57.1741C56.1968 57.1741 66.5264 54.3701 67.3282 53.9328C68.8773 53.0882 69.7316 40.9766 69.7316 40.9766Z" fill="#FE922F"/>
<path d="M32.5588 67.6245L50.5908 67.6239C50.9914 67.6239 51.2436 67.1672 51.0475 66.798L44.8755 55.1834C44.7832 55.0085 44.6089 54.9005 44.4195 54.9005L26.388 54.9011C25.9875 54.9011 25.7353 55.3578 25.932 55.727L32.1027 67.3416C32.1956 67.5165 32.37 67.6245 32.5588 67.6245Z" fill="white"/>
<path d="M30.9075 67.6245L48.9396 67.6239C49.3401 67.6239 49.5923 67.1672 49.3956 66.798L43.2243 55.1834C43.132 55.0085 42.9576 54.9005 42.7682 54.9005L24.7368 54.9011C24.3356 54.9011 24.084 55.3578 24.2807 55.727L30.4514 67.3416C30.5437 67.5165 30.7187 67.6245 30.9075 67.6245Z" fill="#68B6D8"/>
<path d="M30.3871 68.4667H53.5444C53.7519 68.4667 53.9202 68.2983 53.9202 68.0914V67.1576C53.9202 66.9507 53.7519 66.7823 53.5444 66.7823H30.3871C30.1795 66.7823 30.0112 66.9507 30.0112 67.1576V68.0914C30.0112 68.2983 30.1795 68.4667 30.3871 68.4667Z" fill="black"/>
<path d="M104.919 63.5428H80.1104V82.8224H104.919V63.5428Z" fill="#5A6991"/>
<path d="M89.7504 73.1823C89.7504 78.5061 85.4347 82.8224 80.1103 82.8224C74.7859 82.8224 70.4702 78.5061 70.4702 73.1823C70.4702 67.8585 74.7859 63.5428 80.1103 63.5428C85.4347 63.5428 89.7504 67.8585 89.7504 73.1823Z" fill="#6876AA"/>
<path d="M84.3906 73.1822C84.3906 75.5458 82.4746 77.4618 80.1111 77.4618C77.7475 77.4618 75.8315 75.5458 75.8315 73.1822C75.8315 70.8187 77.7475 68.9027 80.1111 68.9027C82.4746 68.9027 84.3906 70.8187 84.3906 73.1822Z" fill="#107CC7"/>
<path d="M57.2823 57.389C57.2256 57.389 57.1707 57.3564 57.1454 57.3015C57.1104 57.2261 57.143 57.1362 57.2184 57.1013C57.2763 57.0747 63.0284 54.4216 68.909 53.3791C68.9874 53.3653 69.0695 53.419 69.0839 53.5016C69.099 53.5836 69.0441 53.6621 68.9621 53.6765C63.1195 54.7117 57.403 57.3486 57.3457 57.3745L57.2823 57.389Z" fill="white"/>
<path d="M67.4632 52.0265C66.9161 52.0265 66.1511 53.081 65.6329 54.0184C66.714 53.2614 67.7075 52.3987 67.6689 52.1079C67.6677 52.0989 67.6641 52.0717 67.5845 52.0458L67.4632 52.0265ZM65.2275 54.6265L65.1286 54.5897C65.0773 54.5451 65.0623 54.4721 65.0912 54.4106C65.239 54.1011 66.5644 51.3943 67.6786 51.7592C67.9042 51.8328 67.9567 51.9849 67.9682 52.0687C68.0575 52.7456 65.9563 54.1789 65.3096 54.6018L65.2275 54.6265Z" fill="white"/>
<path d="M60.6388 40.7364C59.626 40.7364 58.9419 40.4818 58.8876 40.4607C58.8097 40.4312 58.7717 40.3437 58.8007 40.2665C58.8303 40.1881 58.9195 40.1494 58.9961 40.1796C59.0203 40.188 61.4786 41.0978 64.0213 39.3574C64.0913 39.3109 64.1842 39.3272 64.2306 39.3966C64.2777 39.4647 64.2602 39.5588 64.192 39.6059C62.8817 40.503 61.6095 40.7364 60.6388 40.7364Z" fill="white"/>
<path d="M54.1052 58.1321C54.0219 58.1321 53.9544 58.0645 53.9544 57.9813V53.566C53.8337 53.338 53.2268 52.0916 53.228 50.0888C53.2292 47.914 54.6384 45.2543 54.6988 45.1427C54.738 45.0685 54.8291 45.0413 54.9027 45.0805C54.9763 45.1197 55.0034 45.2108 54.9648 45.2844C54.9504 45.311 53.5309 47.9907 53.5297 50.0888C53.5285 52.1797 54.2294 53.4405 54.2367 53.4532L54.256 53.528V57.9813C54.256 58.0645 54.1884 58.1321 54.1052 58.1321Z" fill="white"/>
<path d="M38.491 60.4113C38.491 61.3234 37.7514 62.063 36.8392 62.063C35.9265 62.063 35.1875 61.3234 35.1875 60.4113C35.1875 59.4991 35.9265 58.7595 36.8392 58.7595C37.7514 58.7595 38.491 59.4991 38.491 60.4113Z" fill="white"/>
<path d="M118.094 72.9482C115.666 77.8352 111.66 80.7852 109.146 79.5364C106.632 78.2877 106.562 73.3132 108.99 68.4262C111.418 63.5385 115.424 60.5892 117.938 61.838C120.452 63.0867 120.522 68.0606 118.094 72.9482Z" fill="#7B9B75"/>
<path d="M92.1577 72.5964C96.9132 75.2731 99.652 79.4266 98.2754 81.8722C96.8981 84.3184 91.9267 84.1314 87.1718 81.4541C82.4163 78.7774 79.6775 74.624 81.0541 72.1784C82.4314 69.7316 87.4022 69.9192 92.1577 72.5964Z" fill="#7B9B75"/>
<path d="M91.1643 92.3509C87.1635 91.7471 84.1719 89.5898 84.4826 87.5321C84.7927 85.4744 88.288 84.295 92.2882 84.8989C96.289 85.5021 99.2806 87.66 98.9699 89.7177C98.6598 91.7754 95.1651 92.9542 91.1643 92.3509Z" fill="#7B9B75"/>
<path d="M114.254 78.2576C118.612 74.9728 123.515 74.1277 125.204 76.3688C126.893 78.6105 124.73 83.0903 120.372 86.375C116.014 89.6598 111.112 90.5056 109.422 88.2639C107.733 86.0221 109.897 81.5429 114.254 78.2576Z" fill="#7B9B75"/>
<path d="M103.503 96.0344C103.438 96.0344 103.379 95.9933 103.359 95.9282C100.483 86.6253 90.5527 88.0225 90.4549 88.0375C90.3711 88.0502 90.2951 87.9935 90.283 87.9109C90.2704 87.8288 90.327 87.7516 90.4091 87.7389C90.5122 87.7226 100.693 86.2863 103.647 95.8395C103.671 95.9191 103.627 96.0036 103.547 96.0277L103.503 96.0344Z" fill="white"/>
<path d="M104.331 95.3358C104.262 95.3358 104.2 95.2893 104.184 95.2194C101.533 83.8491 91.6152 77.3954 91.5151 77.3321C91.4451 77.2868 91.4239 77.1939 91.4692 77.1234C91.5144 77.054 91.6074 77.0335 91.6773 77.0781C91.7781 77.1421 101.798 83.6579 104.477 95.1512C104.496 95.232 104.446 95.3129 104.365 95.3322L104.331 95.3358Z" fill="white"/>
<path d="M103.659 99.9151C103.584 99.9151 103.519 99.8596 103.51 99.7836C102.088 88.645 113.718 68.6228 113.836 68.4219C113.878 68.3501 113.971 68.326 114.043 68.3682C114.114 68.4104 114.138 68.5027 114.096 68.5745C113.979 68.7748 102.4 88.7083 103.809 99.745C103.819 99.8282 103.761 99.9037 103.678 99.9139L103.659 99.9151Z" fill="white"/>
<path d="M104.827 94.5172C104.725 94.5045 104.667 94.4285 104.677 94.3465C104.689 94.2632 105.937 85.9925 119.305 79.8568C119.381 79.8212 119.471 79.855 119.506 79.9304C119.541 80.0064 119.507 80.0957 119.431 80.1306C106.227 86.1916 104.988 94.3049 104.977 94.3863C104.966 94.4623 104.901 94.5172 104.827 94.5172Z" fill="white"/>
<path d="M111.287 111.789H100.037C99.427 111.789 98.9161 111.355 98.8569 110.785L97.1352 94.3953C97.0665 93.7402 97.6148 93.1725 98.3158 93.1725H113.009C113.71 93.1725 114.258 93.7402 114.189 94.3953L112.468 110.785C112.408 111.355 111.898 111.789 111.287 111.789Z" fill="#AA8888"/>
<path d="M108.797 111.789H97.5472C96.9367 111.789 96.4257 111.355 96.3666 110.785L94.6449 94.3953C94.5767 93.7402 95.1245 93.1725 95.8255 93.1725H110.518C111.219 93.1725 111.767 93.7402 111.699 94.3953L109.977 110.785C109.918 111.355 109.407 111.789 108.797 111.789Z" fill="#B79A9A"/>
<path d="M54.6629 32.7361L54.6255 32.7313L51.7907 32.011C51.7099 31.9905 51.661 31.9084 51.6822 31.8276C51.7021 31.7468 51.7859 31.6985 51.8649 31.719L54.6997 32.4393C54.7805 32.4598 54.8294 32.5419 54.8089 32.6227C54.792 32.6909 54.7298 32.7361 54.6629 32.7361Z" fill="black"/>
<path d="M54.6635 34.5084L51.0669 33.9498C50.9842 33.9365 50.9281 33.8599 50.9407 33.7773C50.954 33.6952 51.0331 33.6391 51.1127 33.6518L54.6864 34.2086C54.7691 34.2219 54.8252 34.2985 54.8125 34.3812C54.8004 34.4554 54.7365 34.5084 54.6635 34.5084Z" fill="black"/>
<path d="M59.8765 35.4501C59.9567 35.5829 60.1111 35.7397 60.3494 35.721C60.5883 35.6963 60.8417 35.4574 61.0221 35.2384L59.8765 35.4501ZM60.2999 36.025C59.8421 36.025 59.5863 35.6136 59.5127 35.3832L59.5266 35.2601L59.6285 35.1895L61.3346 34.874C61.3955 34.8608 61.4522 34.8879 61.486 34.9362L61.4914 35.0996C61.4383 35.1877 60.9593 35.9617 60.3796 36.0208L60.2999 36.025Z" fill="black"/>
<path d="M64.3718 34.9656L64.2627 34.9192C64.2048 34.8589 64.2072 34.7636 64.2675 34.7056L65.769 33.2699C65.8299 33.2126 65.9253 33.2144 65.9826 33.2747C66.0399 33.335 66.0374 33.4304 65.9777 33.4877L64.4762 34.924L64.3718 34.9656Z" fill="black"/>
<path d="M65.9704 34.6255L64.8339 34.5079C64.7519 34.4994 64.6916 34.4246 64.7 34.342C64.7085 34.2593 64.7772 34.2008 64.8659 34.2081L65.9861 34.3245C66.0688 34.3329 66.1291 34.4071 66.1207 34.4898C66.1122 34.5676 66.0471 34.6255 65.9704 34.6255Z" fill="black"/>
<path d="M61.9136 30.4583L61.8756 30.4528L60.6974 30.1434C60.6166 30.1222 60.5683 30.0396 60.5894 29.9594C60.6111 29.8791 60.6908 29.8297 60.774 29.852L61.9522 30.1615C62.0331 30.1826 62.0813 30.2652 62.0602 30.3455C62.0415 30.4136 61.9812 30.4583 61.9136 30.4583Z" fill="black"/>
<path d="M59.2088 30.1486H58.3256C58.243 30.1486 58.1748 30.081 58.1748 29.9978C58.1748 29.9139 58.243 29.847 58.3256 29.847H59.2088C59.2921 29.847 59.3596 29.9139 59.3596 29.9978C59.3596 30.081 59.2921 30.1486 59.2088 30.1486Z" fill="black"/>
<path d="M58.7675 33.9668C58.706 33.9668 58.6481 33.9288 58.6257 33.8678C58.201 32.7108 59.5083 31.6913 59.5644 31.6485C59.6314 31.5984 59.7261 31.6104 59.7761 31.6762C59.8268 31.7426 59.8141 31.8373 59.7484 31.8879C59.7363 31.897 58.5612 32.8158 58.9087 33.7641C58.9376 33.8419 58.8972 33.9288 58.8194 33.9577L58.7675 33.9668Z" fill="black"/>
<path d="M61.2025 32.5304C61.094 32.5135 61.039 32.4357 61.0541 32.3531L61.1995 31.5278L60.8152 31.1713C60.7543 31.1152 60.7507 31.0193 60.8074 30.9583C60.8647 30.898 60.9588 30.8938 61.0204 30.9505L61.4643 31.3625L61.5108 31.4994L61.3509 32.4055C61.3377 32.4785 61.2743 32.5304 61.2025 32.5304Z" fill="black"/>
<path d="M58.3886 32.2142C58.2801 32.1979 58.2252 32.1195 58.2403 32.0375L58.3856 31.2122L58.0014 30.8557C57.9404 30.799 57.9368 30.7037 57.9929 30.6427C58.0508 30.5818 58.1455 30.5776 58.2065 30.6349L58.6505 31.0469L58.6963 31.1833L58.5371 32.09C58.5238 32.163 58.4604 32.2142 58.3886 32.2142Z" fill="black"/>
</svg>
