<svg width="139" height="138" viewBox="0 0 139 138" fill="none" xmlns="http://www.w3.org/2000/svg">
<path d="M122.214 119.283C122.214 120.444 98.6797 121.385 69.6504 121.385C40.6199 121.385 17.0864 120.444 17.0864 119.283C17.0864 118.123 40.6199 117.182 69.6504 117.182C98.6797 117.182 122.214 118.123 122.214 119.283Z" fill="#DDD0D0"/>
<path d="M114.463 118.848C115.21 118.529 115.514 117.539 115.155 116.6L103.275 85.5258L98.3701 87.6273L112.347 117.777C112.774 118.698 113.709 119.171 114.463 118.848Z" fill="#3A4970"/>
<path d="M79.562 118.909C80.3107 119.224 81.2339 118.755 81.6591 117.844L95.7392 87.7024L90.819 85.637L78.8617 116.643C78.4965 117.591 78.8055 118.592 79.562 118.909Z" fill="#3A4970"/>
<path d="M113.948 56.6642C109.841 49.7481 100.684 47.5799 94.074 52.1632C90.3072 54.7755 86.387 59.3438 83.4873 67.2771C82.4579 70.0928 78.4371 87.4628 88.876 91.2251C100.057 95.2554 115.216 89.6655 117.089 73.2871C117.929 65.9459 116.233 60.5144 113.948 56.6642Z" fill="#6876AA"/>
<path d="M96.6119 83.5677C91.7312 83.5677 87.7749 82.6767 87.7749 81.5789C87.7749 80.4801 91.7312 79.5891 96.6119 79.5891C101.493 79.5891 105.449 80.4801 105.449 81.5789C105.449 82.6767 101.493 83.5677 96.6119 83.5677Z" fill="#525F95"/>
<path d="M112.036 80.2838L111.943 80.2488C111.886 80.1976 111.881 80.1104 111.932 80.0526C114.453 77.2162 114.495 72.1249 114.495 72.0732C114.495 71.9965 114.558 71.9348 114.634 71.9348C114.711 71.9348 114.773 71.9971 114.773 72.0743C114.773 72.1266 114.732 77.3213 112.139 80.2371L112.036 80.2838Z" fill="#92B4EA"/>
<path d="M55.4336 105.334V110.258L46.4849 109.91V105.334H55.4336Z" fill="#F48462"/>
<path d="M76.0969 104.779V109.703L67.813 109.355V104.779H76.0969Z" fill="#F48462"/>
<path d="M56.3395 51.6862C56.3395 51.6862 51.6462 61.0924 47.8188 78.0544C44.3283 93.5251 43.5757 106.321 43.5757 106.321H58.6751C58.6751 106.321 60.3548 93.7068 60.8022 88.715C61.2497 83.7243 62.7381 77.0428 62.7381 77.0428C62.7381 77.0428 64.8108 105.833 65.3044 106.321C65.799 106.808 80.2532 106.428 80.0981 105.767C79.9436 105.106 75.5298 57.3589 75.1385 54.2113C73.9357 44.5345 56.3395 51.6862 56.3395 51.6862Z" fill="#FE922F"/>
<path d="M65.7554 117.843C65.7554 118.712 66.0377 119.706 66.6147 119.956C67.1916 120.207 71.8633 120.728 75.9502 120.359C79.8632 120.004 80.6753 119.706 80.9643 119.337C81.1049 119.15 80.8298 118.281 80.5146 117.439L80.4607 117.308C80.2995 116.884 80.1317 116.473 80.011 116.181C79.8904 115.903 79.7426 115.639 79.5681 115.382C79.1451 114.777 78.3064 113.525 78.0912 112.879C77.8094 112.017 77.3803 110.154 77.0913 109.278C76.8029 108.416 76.0981 108.235 76.0981 108.235C76.0981 108.235 68.0509 107.665 67.474 108.165C66.9031 108.659 66.6147 112.76 66.6147 113.379V113.998C66.6147 114.575 66.2323 115.715 65.9838 116.661C65.9165 116.897 65.8632 117.12 65.8226 117.321C65.7826 117.523 65.7554 117.697 65.7554 117.843Z" fill="#A37B90"/>
<path d="M32.0836 119.615C32.6211 119.845 55.4603 120.491 55.9905 119.615C56.1517 119.351 56.2657 118.454 56.3396 117.328C56.5275 114.672 56.5275 110.724 56.5275 110.724C56.5275 110.724 56.6953 109.375 56.662 108.749C56.6347 108.131 45.6478 108.367 45.6478 108.367L38.5072 114.2C38.5072 114.2 36.5474 113.839 34.4064 114.2C33.2719 114.388 32.5405 115.827 32.1781 117.182C31.8557 118.385 31.829 119.504 32.0836 119.615Z" fill="#A37B90"/>
<path d="M32.0836 119.615C32.6211 119.845 55.4603 120.491 55.9905 119.615C56.1517 119.351 56.2657 118.454 56.3396 117.328C51.9975 117.648 41.3124 118.253 32.1781 117.182C31.8557 118.385 31.829 119.504 32.0836 119.615Z" fill="#FE922F"/>
<path d="M65.7554 117.843C65.7554 118.712 66.0377 119.706 66.6147 119.956C67.1916 120.207 71.8633 120.728 75.9502 120.359C79.8632 120.004 80.6753 119.706 80.9643 119.337C81.1049 119.15 80.8298 118.281 80.5146 117.439C76.8834 117.724 70.3264 117.982 65.9838 116.661C65.9165 116.897 65.8632 117.12 65.8226 117.321C65.7826 117.523 65.7554 117.697 65.7554 117.843Z" fill="#FE922F"/>
<path d="M62.6011 77.0535C62.5961 76.9918 62.1248 70.7888 61.9881 68.0386C61.8714 65.6864 61.8502 64.3802 61.8463 64.0423L57.0352 61.8234L57.1513 61.5717L62.1237 63.8639V63.9528C62.1237 63.9656 62.1293 65.2801 62.266 68.0247C62.4022 70.7716 62.8735 76.9701 62.8779 77.0329L62.6011 77.0535Z" fill="#6876AA"/>
<path d="M75.8907 112.506L75.8529 112.501C75.8217 112.493 72.6769 111.628 71.0989 111.908L69.4693 112.197C69.4098 112.211 69.347 112.177 69.3198 112.121C69.2931 112.065 69.3064 111.998 69.3531 111.957C69.4726 111.85 72.3006 109.384 73.9881 110.131C74.0581 110.161 74.0898 110.244 74.0587 110.314C74.0275 110.384 73.9447 110.415 73.8752 110.385C72.6986 109.864 70.7827 111.182 69.9473 111.83L71.05 111.635C72.693 111.344 75.7967 112.197 75.9279 112.233C76.0018 112.254 76.0452 112.331 76.0246 112.405C76.0074 112.466 75.9512 112.506 75.8907 112.506Z" fill="white"/>
<path d="M40.2192 112.94C40.1492 112.94 40.0892 112.887 40.0814 112.816C40.0731 112.74 40.1286 112.671 40.2048 112.663L44.0188 112.257L42.7621 110.724C42.7138 110.666 42.7227 110.578 42.7816 110.529C42.841 110.48 42.9283 110.489 42.9772 110.549L44.3968 112.28L44.4179 112.42C44.3985 112.468 44.3551 112.5 44.304 112.506L40.2343 112.939L40.2192 112.94Z" fill="white"/>
<path d="M74.8444 61.1565C72.2353 59.2722 71.575 56.6065 71.5483 56.4937L71.819 56.4292C71.8251 56.4559 72.4849 59.1094 75.0072 60.9308L74.8444 61.1565Z" fill="#6876AA"/>
<path d="M64.0618 65.639H87.8604C88.3028 65.639 88.6619 65.28 88.6619 64.837V64.5874C88.6619 64.1444 88.3028 63.7859 87.8604 63.7859H64.0618C63.6188 63.7859 63.2598 64.1444 63.2598 64.5874V64.837C63.2598 65.28 63.6188 65.639 64.0618 65.639Z" fill="black"/>
<path d="M42.8907 65.5768H25.1167C24.194 65.5768 23.4453 64.8287 23.4453 63.906V63.6659C23.4453 62.7427 24.194 61.9946 25.1167 61.9946H42.8907C43.2192 61.9946 43.4854 62.2608 43.4854 62.5887V64.9821C43.4854 65.3106 43.2192 65.5768 42.8907 65.5768Z" fill="#FE922F"/>
<path d="M45.5962 65.6145H27.8227C26.8995 65.6145 26.1514 64.8664 26.1514 63.9431V63.703C26.1514 62.7804 26.8995 62.0317 27.8227 62.0317H45.5962C45.9252 62.0317 46.1915 62.2985 46.1915 62.627V65.0198C46.1915 65.3483 45.9252 65.6145 45.5962 65.6145Z" fill="#FFCB97"/>
<path d="M46.192 64.9231H28.105C27.4764 64.9231 26.9673 64.414 26.9673 63.7859C26.9673 63.1573 27.4764 62.6481 28.105 62.6481H46.192V64.9231Z" fill="white"/>
<path d="M22.597 62.0608H42.5904C43.5798 62.0608 44.3813 61.2587 44.3813 60.2699C44.3813 59.28 43.5798 58.4785 42.5904 58.4785H22.597L22.5503 58.5252V62.0141L22.597 62.0608Z" fill="#A37B90"/>
<path d="M22.1247 62.0608H37.5821C38.5709 62.0608 39.3729 61.2587 39.3729 60.2699C39.3729 59.28 38.5709 58.4785 37.5821 58.4785H22.1247C21.8151 58.4785 21.5645 58.7292 21.5645 59.0393V61.5C21.5645 61.8095 21.8151 62.0608 22.1247 62.0608Z" fill="#C199B0"/>
<path d="M21.5645 61.3687H37.5109C38.139 61.3687 38.6481 60.8595 38.6481 60.2314C38.6481 59.6034 38.139 59.0942 37.5109 59.0942H21.5645V61.3687Z" fill="white"/>
<path d="M24.2333 58.5067H40.3009C41.2903 58.5067 42.0924 57.7047 42.0924 56.7153C42.0924 55.7265 41.2903 54.9239 40.3009 54.9239H24.2333C24.1205 54.9239 24.0293 55.0161 24.0293 55.129V58.3022C24.0293 58.4156 24.1205 58.5067 24.2333 58.5067Z" fill="#68B6D8"/>
<path d="M23.7236 58.5067H36.1573C37.1467 58.5067 37.9487 57.7047 37.9487 56.7153C37.9487 55.7265 37.1467 54.9239 36.1573 54.9239H23.7236C23.4418 54.9239 23.2134 55.1529 23.2134 55.4341V57.997C23.2134 58.2788 23.4418 58.5067 23.7236 58.5067Z" fill="#8CD2EA"/>
<path d="M23.2134 57.8154H36.2118C36.8399 57.8154 37.349 57.3063 37.349 56.6776C37.349 56.0495 36.8399 55.5404 36.2118 55.5404H23.2134V57.8154Z" fill="white"/>
<path d="M69.7793 65.6352H87.3338L92.3473 54.2953H75.4848C75.0646 54.2953 74.6833 54.5427 74.5132 54.9279L69.7793 65.6352Z" fill="white"/>
<path d="M71.3042 65.6352H88.8581L93.3325 55.5143C93.5865 54.9401 93.1663 54.2953 92.5388 54.2953H76.3177L71.3042 65.6352Z" fill="#7C576C"/>
<path d="M80.8643 59.9647C80.8643 60.7879 81.5318 61.4554 82.3555 61.4554C83.1787 61.4554 83.8462 60.7879 83.8462 59.9647C83.8462 59.141 83.1787 58.474 82.3555 58.474C81.5318 58.474 80.8643 59.141 80.8643 59.9647Z" fill="white"/>
<path d="M94.6965 68.4748H20.086C19.2939 68.4748 18.6514 67.8328 18.6514 67.0402C18.6514 66.2476 19.2939 65.6057 20.086 65.6057H94.6965C95.4891 65.6057 96.1316 66.2476 96.1316 67.0402C96.1316 67.8328 95.4891 68.4748 94.6965 68.4748Z" fill="#107CC7"/>
<path d="M55.7876 57.3541H49.4985V65.5769H55.7876V57.3541Z" fill="#A37B90"/>
<path d="M49.4985 57.354C49.4985 57.5536 50.9064 57.7153 52.6434 57.7153C54.3797 57.7153 55.7876 57.5536 55.7876 57.354C55.7876 57.1545 54.3797 56.9927 52.6434 56.9927C50.9064 56.9927 49.4985 57.1545 49.4985 57.354Z" fill="white"/>
<path d="M47.7038 61.9023C47.7038 63.2702 48.5092 64.3835 49.498 64.3835C50.4879 64.3835 51.2933 63.2702 51.2933 61.9023C51.2933 60.5344 50.4879 59.4217 49.498 59.4217C48.5092 59.4217 47.7038 60.5344 47.7038 61.9023ZM47.1479 61.9023C47.1479 60.2276 48.2023 58.8658 49.498 58.8658C50.7947 58.8658 51.8491 60.2276 51.8491 61.9023C51.8491 63.577 50.7947 64.9393 49.498 64.9393C48.2023 64.9393 47.1479 63.577 47.1479 61.9023Z" fill="#A37B90"/>
<path d="M61.6032 29.1156C61.6032 29.1156 61.0424 29.2445 60.9051 29.4513C60.7678 29.6575 60.7895 30.4879 60.7895 30.4879C60.7895 30.4879 54.7733 30.5424 49.1862 37.3473C43.5996 44.1527 42.4396 47.7467 44.2844 50.6769C46.1297 53.6061 55.2191 52.7941 55.2191 52.7941C55.2191 52.7941 57.8698 55.6415 64.8136 55.9689C71.7575 56.2957 75.4443 53.107 75.4443 53.107C75.4443 53.107 87.0287 50.4507 86.2616 42.5036C85.494 34.557 73.9508 30.7897 71.3951 30.2089C68.8394 29.6286 66.9341 29.7108 66.9341 29.7108C66.9341 29.7108 66.8318 29.3045 66.7129 29.2323C66.077 28.8471 61.6032 29.1156 61.6032 29.1156Z" fill="#6876AA"/>
<path d="M59.8995 40.8355C59.8995 40.8355 58.0625 39.7583 58.4483 42.9699C58.7217 45.2465 60.338 42.2562 60.338 42.2562L59.8995 40.8355Z" fill="#F48462"/>
<path d="M61.651 22.2812C61.651 22.2812 59.0992 21.1363 58.863 23.1244C58.5884 25.4272 61.3458 25.4989 61.3458 25.4989L61.651 22.2812Z" fill="#F48462"/>
<path d="M60.3368 24.3222L60.2157 24.251L59.3841 22.7642C59.3464 22.6975 59.3702 22.613 59.4375 22.5752C59.5036 22.5363 59.5892 22.5614 59.6265 22.6286L60.458 24.1154C60.4958 24.1821 60.4719 24.2666 60.4046 24.3044L60.3368 24.3222Z" fill="black"/>
<path d="M66.1881 27.851L66.1604 30.5523C66.1604 30.5523 65.1076 31.0942 63.8042 31.0931C62.044 31.0909 61.4692 30.0365 61.4692 30.0365L61.5398 26.8705L66.1881 27.851Z" fill="#F48462"/>
<path d="M66.1886 27.8478C66.1886 27.8478 65.3054 30.0183 63.3134 29.6831C61.7076 29.4135 61.2891 27.1219 61.2891 27.1219L66.1886 27.8478Z" fill="black"/>
<path d="M60.8743 20.0569C60.8743 20.0569 59.6565 24.9792 61.0322 27.1941C62.5079 29.5692 64.9657 28.9133 65.8939 28.2257C67.1456 27.2992 67.4224 25.9875 67.4224 25.9875C67.4224 25.9875 69.1132 26.356 69.7041 24.9825C70.3249 23.5402 69.2894 22.3479 68.4418 22.2635C67.5947 22.1784 67.4924 22.3313 67.4924 22.3313L67.7704 20.7839C67.7704 20.7839 62.7146 14.955 60.8743 20.0569Z" fill="#F48462"/>
<path d="M67.7335 24.5623L67.6268 24.5123C67.5779 24.4528 67.5857 24.3655 67.6451 24.3166L68.9752 23.2172C69.0341 23.1683 69.122 23.1766 69.1703 23.2361C69.2192 23.295 69.2109 23.3823 69.152 23.4312L67.8219 24.5306L67.7335 24.5623Z" fill="black"/>
<path d="M68.9377 24.7918L68.8521 24.7623L68.09 24.1665C68.0295 24.1198 68.0189 24.032 68.0661 23.9714C68.1139 23.9114 68.2007 23.9008 68.2612 23.9475L69.0233 24.5428C69.0839 24.59 69.0944 24.6773 69.0472 24.7384L68.9377 24.7918Z" fill="black"/>
<path d="M63.4544 25.1508C63.3882 25.1508 63.3293 25.1036 63.3176 25.0363C63.0831 23.724 63.5194 22.6708 63.5377 22.6263C63.5683 22.5563 63.6489 22.5235 63.7195 22.5524C63.7906 22.5824 63.824 22.6635 63.794 22.7347C63.7895 22.7447 63.371 23.7591 63.5911 24.9874C63.6044 25.063 63.5544 25.1353 63.4788 25.1486L63.4544 25.1508Z" fill="black"/>
<path d="M61.5841 47.0546C61.5841 47.0546 61.2217 50.2573 58.7694 49.4635C56.3171 48.6693 57.1814 45.0942 57.1814 45.0942L61.5841 47.0546Z" fill="#F48462"/>
<path d="M63.6052 26.5921L63.5296 26.5898C63.4535 26.5843 63.3957 26.5181 63.4012 26.4414C63.4074 26.3653 63.4741 26.2991 63.5497 26.313C63.5836 26.3114 64.3967 26.3625 64.7897 25.705C64.8291 25.6377 64.9147 25.6177 64.9803 25.6566C65.0465 25.6961 65.0676 25.7817 65.0287 25.8473C64.6179 26.5348 63.8498 26.5921 63.6052 26.5921Z" fill="black"/>
<path d="M61.6041 29.1155C61.6041 29.1155 62.1321 29.7414 63.4939 29.9276C64.8556 30.1143 66.1763 29.1444 66.1763 29.1444L66.876 30.8575L64.5516 31.9424L60.9404 31.2288L61.1227 29.5941L61.6041 29.1155Z" fill="#6876AA"/>
<path d="M57.5598 43.14L57.5054 43.1289C57.4604 43.11 52.9226 41.2119 48.4927 42.8988C48.4216 42.9266 48.341 42.8899 48.3138 42.8182C48.2865 42.7465 48.3227 42.6664 48.3944 42.6392C52.9304 40.9095 57.5682 42.8532 57.6149 42.8738C57.6849 42.9032 57.7182 42.9855 57.6877 43.0561C57.6654 43.1089 57.6138 43.14 57.5598 43.14Z" fill="white"/>
<path d="M71.4147 46.3972C71.4147 46.3972 69.5349 42.1752 69.2276 41.8711C68.9202 41.5671 65.2968 40.262 64.8005 40.2776C64.3041 40.2932 65.0628 41.412 65.4474 41.7311C65.8321 42.0496 66.3295 42.3953 66.3295 42.3953C66.3295 42.3953 63.6004 42.3464 63.3386 42.8027C63.0768 43.259 63.8 43.6976 63.8 43.6976C63.8 43.6976 62.8217 43.7632 63.1608 44.3968C63.4993 45.0304 66.165 45.7797 66.165 45.7797C66.165 45.7797 66.6274 48.4515 68.4188 49.1152C70.2097 49.7794 71.0557 49.6159 71.0557 49.6159L71.4147 46.3972Z" fill="#F48462"/>
<path d="M69.9077 44.1666C69.9077 44.1666 70.8037 41.0668 71.2617 42.0595C71.7197 43.0516 71.4151 46.3971 71.4151 46.3971L70.0872 45.938L69.9077 44.1666Z" fill="#F48462"/>
<path d="M60.3255 48.0968L63.9344 48.3524C64.3185 48.3797 64.6525 48.0895 64.6792 47.7055L65.2072 40.2491C65.2345 39.8651 64.9449 39.531 64.5602 39.5038L60.9519 39.2487C60.5678 39.2214 60.2337 39.511 60.2071 39.8951L59.679 47.352C59.6518 47.7366 59.9414 48.0695 60.3255 48.0968Z" fill="white"/>
<path d="M59.7761 48.0585L63.3845 48.3136C63.7691 48.3409 64.1026 48.0513 64.1299 47.6672L64.6573 40.2103C64.6846 39.8257 64.395 39.4927 64.0109 39.4655L60.4025 39.2098C60.0179 39.1826 59.6844 39.4727 59.6572 39.8563L59.1297 47.3131C59.1025 47.6972 59.3921 48.0313 59.7761 48.0585Z" fill="black"/>
<path d="M58.1201 44.2516C58.1201 44.2516 55.9547 43.5613 56.8367 42.6759C57.7188 41.791 61.8236 42.0923 62.0153 43.3729C62.2076 44.654 58.1201 44.2516 58.1201 44.2516Z" fill="#F48462"/>
<path d="M58.0002 46.1288C58.0002 46.1288 55.8342 45.4384 56.7168 44.553C57.5989 43.6681 61.7036 43.9694 61.8954 45.25C62.0872 46.5312 58.0002 46.1288 58.0002 46.1288Z" fill="#F48462"/>
<path d="M59.0903 47.7983C58.5812 47.7516 58.0842 47.591 57.6707 47.2914C57.3005 47.0241 57.0326 46.6628 57.4401 46.2887C58.2554 45.5423 61.8722 45.9725 61.9905 47.1125C62.0789 47.9623 60.1024 47.89 59.0903 47.7983Z" fill="#F48462"/>
<path d="M60.7876 44.2749L57.6534 43.8986C57.5633 43.8886 57.4994 43.8064 57.5105 43.7169C57.5211 43.6274 57.605 43.559 57.6923 43.574L60.8071 43.9487C60.8966 43.9592 60.9611 44.0409 60.95 44.1304C60.94 44.2138 60.8694 44.2749 60.7876 44.2749Z" fill="black"/>
<path d="M60.9097 46.2776L57.7755 45.9013C57.6854 45.8908 57.6215 45.809 57.6326 45.7196C57.6437 45.6301 57.7266 45.5623 57.8144 45.5767L60.9292 45.9513C61.0192 45.9613 61.0831 46.0436 61.072 46.1331C61.062 46.2159 60.9914 46.2776 60.9097 46.2776Z" fill="black"/>
<path d="M68.4123 42.7825L66.3119 42.5485C66.228 42.5391 66.1668 42.4624 66.1763 42.3779C66.1857 42.294 66.2546 42.2251 66.3469 42.2423L68.4296 42.4752C68.5135 42.4846 68.5752 42.5608 68.5652 42.6458C68.5568 42.7242 68.4896 42.7825 68.4123 42.7825Z" fill="black"/>
<path d="M67.2137 44.1522L65.1994 44.0093C65.1138 44.0032 65.0504 43.9293 65.0566 43.8448C65.0621 43.7597 65.126 43.6925 65.2211 43.7019L67.2243 43.8442C67.3093 43.8503 67.3732 43.9237 67.3671 44.0088C67.3615 44.0899 67.2937 44.1522 67.2137 44.1522Z" fill="black"/>
<path d="M70.8576 45.8279C70.7943 45.8279 70.7342 45.7885 70.712 45.7256L69.9605 43.5963C69.9322 43.5157 69.9739 43.4273 70.0545 43.399C70.1384 43.3712 70.224 43.4129 70.2512 43.4929L71.0033 45.6223C71.0316 45.7029 70.9894 45.7912 70.9093 45.8196L70.8576 45.8279Z" fill="black"/>
<path d="M72.004 44.3545L71.9056 44.3139C71.8511 44.2595 71.8511 44.1716 71.9056 44.1172C71.9384 44.0844 75.2405 40.8145 79.8666 39.3788C79.94 39.3566 80.0184 39.3966 80.0406 39.47C80.0634 39.5433 80.0223 39.6211 79.9494 39.6434C75.3906 41.0585 72.1346 44.2811 72.1018 44.3139L72.004 44.3545Z" fill="white"/>
<path d="M77.1572 38.6301C76.4468 38.6301 75.8466 40.1152 75.5525 41.0879C76.5347 40.0774 77.4168 38.9613 77.3106 38.6795C77.2972 38.644 77.2344 38.6334 77.1839 38.6312L77.1572 38.6301ZM75.2813 41.696L75.2129 41.6776C75.159 41.6476 75.1323 41.5848 75.1462 41.5248C75.224 41.1969 75.9344 38.3522 77.1566 38.3522L77.1978 38.3533C77.4395 38.3655 77.534 38.4839 77.5701 38.5812C77.8097 39.2154 75.9533 41.0957 75.3785 41.656L75.2813 41.696Z" fill="white"/>
<path d="M51.3791 40.2247C51.2602 40.2247 51.149 40.2775 51.0412 40.3832C50.8639 40.5588 50.8972 40.6855 50.9084 40.7272C51.019 41.1502 52.0478 41.6054 52.8309 41.8533C52.5403 41.2708 51.9739 40.332 51.4614 40.2331L51.3791 40.2247ZM53.0877 42.2129L53.0516 42.2079C52.8259 42.1468 50.8461 41.5871 50.6393 40.7978C50.6004 40.6499 50.6049 40.4237 50.8461 40.1858C51.0462 39.9885 51.2696 39.9118 51.5148 39.9607C52.3874 40.1297 53.1817 41.9417 53.215 42.0189L53.1928 42.1651L53.0877 42.2129Z" fill="white"/>
<path d="M55.2196 52.933C55.1463 52.933 55.0851 52.8758 55.0812 52.8013C55.0773 52.7246 55.1363 52.6595 55.2124 52.6551C56.8532 52.5706 58.0843 51.5879 58.0966 51.5785C58.1549 51.5301 58.2427 51.5384 58.2922 51.599C58.3406 51.6585 58.3311 51.7463 58.2716 51.7947C58.2188 51.8375 56.961 52.8424 55.2274 52.933H55.2196Z" fill="white"/>
<path d="M75.0882 53.1981C72.5636 52.9013 71.6693 52.2132 71.6326 52.1849C71.5726 52.1365 71.5626 52.0503 71.6099 51.9892C71.6571 51.9286 71.7455 51.9197 71.8044 51.9664C71.8133 51.9725 72.6881 52.6362 75.1043 52.9213C75.1804 52.9302 75.2349 52.9997 75.226 53.0758C75.2177 53.1459 75.1577 53.1981 75.0882 53.1981Z" fill="white"/>
<path d="M63.1646 31.9113C61.461 31.9113 60.6767 30.5718 60.6684 30.5568C60.63 30.4895 60.6534 30.405 60.7201 30.3672C60.7862 30.3283 60.8712 30.3511 60.9096 30.4189C60.9457 30.4812 61.8067 31.9424 63.766 31.5756C63.8449 31.5606 63.9144 31.6117 63.9283 31.6867C63.9427 31.7623 63.8927 31.8346 63.8171 31.849C63.5864 31.8918 63.3691 31.9113 63.1646 31.9113Z" fill="white"/>
<path d="M25.7216 120.727C24.6634 120.727 23.8052 119.869 23.8052 118.811V67.2771H27.6376V118.811C27.6376 119.869 26.7799 120.727 25.7216 120.727Z" fill="#107CC7"/>
<path d="M89.0971 120.727C88.0388 120.727 87.1807 119.869 87.1807 118.811V67.2771H91.013V118.811C91.013 119.869 90.1549 120.727 89.0971 120.727Z" fill="#107CC7"/>
<path d="M60.0802 23.8641L59.346 23.863C59.2693 23.863 59.207 23.8002 59.207 23.724C59.207 23.6468 59.2698 23.5851 59.346 23.5851L60.0802 23.5862C60.1569 23.5862 60.2192 23.6484 60.2192 23.7251C60.2192 23.8019 60.1564 23.8641 60.0802 23.8641Z" fill="black"/>
<path d="M65.2048 23.1503C65.1181 23.1442 65.0602 23.0775 65.0664 23.0008L65.1297 22.1704C65.1358 22.0943 65.1903 22.0304 65.2793 22.0426C65.3554 22.0487 65.4126 22.1154 65.4071 22.1921L65.3432 23.0225C65.3382 23.0953 65.277 23.1503 65.2048 23.1503Z" fill="black"/>
<path d="M62.0246 22.918C61.9368 22.9119 61.8801 22.8452 61.8862 22.7685L61.9501 21.9381C61.9557 21.862 62.0085 21.7975 62.0991 21.8103C62.1758 21.8164 62.233 21.8831 62.2269 21.9598L62.163 22.7902C62.1574 22.863 62.0963 22.918 62.0246 22.918Z" fill="black"/>
<path d="M61.65 21.1667L61.5433 21.1166C61.4938 21.0577 61.5016 20.9705 61.561 20.921C61.9212 20.6186 62.5093 20.6336 62.5393 20.6353C62.616 20.6381 62.6755 20.7026 62.6738 20.7787C62.671 20.8543 62.6088 20.9132 62.5348 20.9132H62.5132C62.4226 20.9132 61.989 20.9243 61.7389 21.1339L61.65 21.1667Z" fill="black"/>
<path d="M65.7269 21.553L65.6436 21.5257C65.354 21.3101 64.8482 21.3517 64.8421 21.3512C64.7643 21.3606 64.6981 21.3017 64.6909 21.2256C64.6848 21.1494 64.7404 21.0816 64.8171 21.0744C64.841 21.0733 65.4318 21.0221 65.8098 21.3028C65.8709 21.3484 65.8842 21.4351 65.8381 21.4974L65.7269 21.553Z" fill="black"/>
<path d="M67.8833 22.3467C67.8833 22.3467 67.3219 23.8613 67.1257 23.7957C66.9295 23.729 67.3058 21.3318 67.8816 21.2451C68.4575 21.1584 67.8833 22.3467 67.8833 22.3467Z" fill="black"/>
<path d="M67.6459 22.1166C67.6459 22.1166 65.9489 21.8582 64.8645 20.8955C63.9485 20.0829 63.6473 18.9902 63.6473 18.9902C63.6473 18.9902 62.9197 18.8468 61.8297 19.4192C60.7403 19.9923 60.5236 21.9744 60.5236 21.9744C60.5236 21.9744 58.8189 18.476 59.8199 17.346C60.8209 16.2172 62.2605 17.3088 62.2605 17.3088C62.2605 17.3088 62.1427 15.0889 65.133 16.1466C68.1233 17.2049 68.6419 19.8828 68.6419 19.8828C68.6419 19.8828 69.6885 19.8622 69.7524 20.8344C69.8163 21.8071 69.3567 22.7603 69.3567 22.7603C69.3567 22.7603 68.9337 22.3001 68.2206 22.5107L67.5075 22.7219L67.6459 22.1166Z" fill="black"/>
</svg>
