<svg width="461" height="147" viewBox="0 0 461 147" fill="none" xmlns="http://www.w3.org/2000/svg">
<rect x="66.478" y="50.0366" width="26.3066" height="62.4781" rx="13.1533" transform="rotate(90 66.478 50.0366)" fill="#FE922F"/>
<path fill-rule="evenodd" clip-rule="evenodd" d="M86.2081 17.7014C86.2081 10.1344 80.0738 4.00006 72.5067 4.00006L17.7014 4.00005C17.6084 4.00005 17.5157 4.00098 17.4232 4.00282C17.3334 4.00102 17.2435 4.00011 17.1533 4.00011C9.88892 4.00011 4 9.88903 4 17.1534V102.65C4 109.914 9.88892 115.803 17.1533 115.803C24.4176 115.803 30.3066 109.914 30.3066 102.65V31.4027L72.5067 31.4027C80.0738 31.4027 86.2081 25.2684 86.2081 17.7014Z" fill="#107CC7"/>
<mask id="path-3-outside-1_189_4688" maskUnits="userSpaceOnUse" x="0" y="0.00012207" width="49" height="49" fill="black">
<rect fill="white" y="0.00012207" width="49" height="49"/>
<path fill-rule="evenodd" clip-rule="evenodd" d="M32.1356 30.4299H34.0336L44.2205 40.6649C45.2056 41.6499 45.2056 43.2596 44.2205 44.2447C43.2355 45.2297 41.6258 45.2297 40.6407 44.2447L30.4298 34.0338V32.1357L29.7811 31.463C26.4175 34.3461 21.8286 35.8357 16.9514 35.0188C10.2722 33.8896 4.93851 28.3156 4.12164 21.5884C2.8723 11.4256 11.4255 2.87242 21.5883 4.12175C28.3155 4.93863 33.8895 10.2723 35.0187 16.9515C35.8356 21.8287 34.346 26.4176 31.4629 29.7812L32.1356 30.4299ZM8.80729 19.619C8.80729 25.6014 13.6365 30.4306 19.6189 30.4306C25.6013 30.4306 30.4304 25.6014 30.4304 19.619C30.4304 13.6366 25.6013 8.80742 19.6189 8.80742C13.6365 8.80742 8.80729 13.6366 8.80729 19.619Z"/>
</mask>
<path fill-rule="evenodd" clip-rule="evenodd" d="M32.1356 30.4299H34.0336L44.2205 40.6649C45.2056 41.6499 45.2056 43.2596 44.2205 44.2447C43.2355 45.2297 41.6258 45.2297 40.6407 44.2447L30.4298 34.0338V32.1357L29.7811 31.463C26.4175 34.3461 21.8286 35.8357 16.9514 35.0188C10.2722 33.8896 4.93851 28.3156 4.12164 21.5884C2.8723 11.4256 11.4255 2.87242 21.5883 4.12175C28.3155 4.93863 33.8895 10.2723 35.0187 16.9515C35.8356 21.8287 34.346 26.4176 31.4629 29.7812L32.1356 30.4299ZM8.80729 19.619C8.80729 25.6014 13.6365 30.4306 19.6189 30.4306C25.6013 30.4306 30.4304 25.6014 30.4304 19.619C30.4304 13.6366 25.6013 8.80742 19.6189 8.80742C13.6365 8.80742 8.80729 13.6366 8.80729 19.619Z" fill="#FE922F"/>
<path d="M34.0336 30.4299L36.3643 28.1102L35.4002 27.1416H34.0336V30.4299ZM32.1356 30.4299L29.8531 32.797L30.8084 33.7182H32.1356V30.4299ZM44.2205 40.6649L41.8899 42.9846L41.8953 42.99L44.2205 40.6649ZM40.6407 44.2447L38.3155 46.5699L38.3155 46.5699L40.6407 44.2447ZM30.4298 34.0338H27.1415V35.3958L28.1046 36.359L30.4298 34.0338ZM30.4298 32.1357H33.7181V30.8085L32.7969 29.8532L30.4298 32.1357ZM29.7811 31.463L32.1482 29.1805L29.9956 26.9482L27.6411 28.9663L29.7811 31.463ZM16.9514 35.0188L16.4032 38.2611L16.4082 38.262L16.9514 35.0188ZM4.12164 21.5884L7.38598 21.1921L7.38539 21.1872L4.12164 21.5884ZM21.5883 4.12175L21.1871 7.38551L21.1919 7.3861L21.5883 4.12175ZM35.0187 16.9515L38.2618 16.4083L38.261 16.4033L35.0187 16.9515ZM31.4629 29.7812L28.9662 27.6412L26.9481 29.9957L29.1803 32.1483L31.4629 29.7812ZM34.0336 27.1416H32.1356V33.7182H34.0336V27.1416ZM46.5512 38.3451L36.3643 28.1102L31.703 32.7496L41.8899 42.9846L46.5512 38.3451ZM46.5457 46.5699C48.815 44.3007 48.815 40.6089 46.5457 38.3397L41.8953 42.99C41.5962 42.6909 41.5962 42.2186 41.8953 41.9195L46.5457 46.5699ZM38.3155 46.5699C40.5847 48.8391 44.2765 48.8391 46.5457 46.5699L41.8953 41.9195C42.1945 41.6204 42.6668 41.6204 42.9659 41.9195L38.3155 46.5699ZM28.1046 36.359L38.3155 46.5699L42.9659 41.9195L32.755 31.7086L28.1046 36.359ZM27.1415 32.1357V34.0338H33.7181V32.1357H27.1415ZM27.414 33.7456L28.0627 34.4183L32.7969 29.8532L32.1482 29.1805L27.414 33.7456ZM16.4082 38.262C22.2962 39.2481 27.8572 37.443 31.9211 33.9597L27.6411 28.9663C24.9778 31.2492 21.3609 32.4232 17.4946 31.7757L16.4082 38.262ZM0.857293 21.9848C1.85014 30.1612 8.29225 36.8898 16.4032 38.2611L17.4995 31.7765C12.2522 30.8894 8.02688 26.4701 7.38598 21.1921L0.857293 21.9848ZM21.9895 0.858002C9.70383 -0.652299 -0.652417 9.70395 0.857884 21.9897L7.38539 21.1872C6.39701 13.1472 13.1471 6.39713 21.1871 7.38551L21.9895 0.858002ZM38.261 16.4033C36.8897 8.29236 30.1611 1.85025 21.9847 0.857411L21.1919 7.3861C26.47 8.027 30.8892 12.2523 31.7764 17.4996L38.261 16.4033ZM33.9596 31.9212C37.4429 27.8573 39.248 22.2964 38.2618 16.4083L31.7755 17.4947C32.4231 21.361 31.2491 24.9779 28.9662 27.6412L33.9596 31.9212ZM34.4182 28.0628L33.7454 27.4141L29.1803 32.1483L29.8531 32.797L34.4182 28.0628ZM19.6189 27.1422C15.4525 27.1422 12.0956 23.7853 12.0956 19.619H5.51897C5.51897 27.4175 11.8204 33.7189 19.6189 33.7189V27.1422ZM27.1421 19.619C27.1421 23.7853 23.7852 27.1422 19.6189 27.1422V33.7189C27.4173 33.7189 33.7187 27.4175 33.7187 19.619L27.1421 19.619ZM19.6189 12.0957C23.7852 12.0957 27.1421 15.4527 27.1421 19.619L33.7187 19.619C33.7187 11.8205 27.4173 5.5191 19.6189 5.5191V12.0957ZM12.0956 19.619C12.0956 15.4527 15.4525 12.0957 19.6189 12.0957V5.5191C11.8204 5.5191 5.51897 11.8205 5.51897 19.619H12.0956Z" fill="white" mask="url(#path-3-outside-1_189_4688)"/>
<path d="M100.042 46.8161H120.588V115.803H100.042V46.8161ZM121.268 14.4318V33.7535H99.3613V14.4318H121.268Z" fill="#107CC7"/>
<path d="M179.97 45.0472C196.298 45.0472 204.462 54.7081 204.462 74.0298V115.803H183.916V74.9823C183.916 70.1745 183.009 66.6821 181.195 64.505C179.471 62.2372 176.705 61.1033 172.895 61.1033C168.359 61.1033 164.731 62.5547 162.009 65.4575C159.288 68.3603 157.927 72.2609 157.927 77.1594V115.803H137.381V66.546C137.381 59.1983 137.018 52.6217 136.292 46.8161H155.614L156.975 57.7016C159.424 53.6195 162.599 50.49 166.499 48.3129C170.491 46.1358 174.981 45.0472 179.97 45.0472Z" fill="#107CC7"/>
<path d="M289.952 15.6564V115.803H269.678V105.598C267.591 109.135 264.643 111.902 260.833 113.898C257.023 115.894 252.714 116.891 247.907 116.891C242.01 116.891 236.749 115.395 232.123 112.401C227.496 109.317 223.868 105.053 221.237 99.6107C218.697 94.0772 217.427 87.7727 217.427 80.6972C217.427 73.6216 218.697 67.4078 221.237 62.0558C223.868 56.613 227.451 52.4403 231.987 49.5375C236.613 46.544 241.92 45.0472 247.907 45.0472C252.533 45.0472 256.751 46.0451 260.561 48.0407C264.371 49.9457 267.319 52.6217 269.405 56.0688V15.6564H289.952ZM253.894 101.243C258.973 101.243 262.874 99.5199 265.595 96.0729C268.317 92.5351 269.678 87.5006 269.678 80.9693C269.678 74.5287 268.271 69.5849 265.459 66.1378C262.738 62.6001 258.883 60.8312 253.894 60.8312C248.814 60.8312 244.868 62.5547 242.056 66.0018C239.244 69.4488 237.838 74.3473 237.838 80.6972C237.838 87.2284 239.244 92.3083 242.056 95.9368C244.868 99.4746 248.814 101.243 253.894 101.243Z" fill="#107CC7"/>
<path d="M375.659 15.6564V115.803H355.385V105.598C353.298 109.135 350.35 111.902 346.54 113.898C342.73 115.894 338.421 116.891 333.614 116.891C327.717 116.891 322.456 115.395 317.83 112.401C313.203 109.317 309.575 105.053 306.944 99.6107C304.404 94.0772 303.134 87.7727 303.134 80.6972C303.134 73.6216 304.404 67.4078 306.944 62.0558C309.575 56.613 313.158 52.4403 317.694 49.5375C322.32 46.544 327.627 45.0472 333.614 45.0472C338.24 45.0472 342.458 46.0451 346.268 48.0407C350.078 49.9457 353.026 52.6217 355.113 56.0688V15.6564H375.659ZM339.601 101.243C344.681 101.243 348.581 99.5199 351.303 96.0729C354.024 92.5351 355.385 87.5006 355.385 80.9693C355.385 74.5287 353.979 69.5849 351.167 66.1378C348.445 62.6001 344.59 60.8312 339.601 60.8312C334.521 60.8312 330.575 62.5547 327.763 66.0018C324.951 69.4488 323.545 74.3473 323.545 80.6972C323.545 87.2284 324.951 92.3083 327.763 95.9368C330.575 99.4746 334.521 101.243 339.601 101.243Z" fill="#107CC7"/>
<path d="M460.277 46.8161L428.437 119.477C424.537 128.276 419.593 134.716 413.606 138.798C407.71 142.971 400.453 145.647 391.835 146.826L387.073 131.042C393.423 129.682 398.185 127.958 401.36 125.872C404.626 123.785 407.165 120.747 408.98 116.755L411.021 112.265L382.582 46.8161H404.081L421.77 91.5826L440.003 46.8161H460.277Z" fill="#107CC7"/>
</svg>
