<svg width="138" height="138" viewBox="0 0 138 138" fill="none" xmlns="http://www.w3.org/2000/svg">
<circle cx="53" cy="50" r="41" fill="#EAF6FF"/>
<path d="M130.686 104.919C130.686 106.273 103.221 107.371 69.3431 107.371C35.4642 107.371 8 106.273 8 104.919C8 103.565 35.4642 102.467 69.3431 102.467C103.221 102.467 130.686 103.565 130.686 104.919Z" fill="#DDD0D0"/>
<path d="M106.581 52.8382C107.295 52.2287 122.282 49.925 121.708 72.3471C121.133 94.7691 97.6739 107.621 71.9255 102.784C46.1772 97.948 70.551 65.7923 70.551 65.7923L106.581 52.8382Z" fill="#107CC7"/>
<path d="M104.917 95.1383L104.783 95.067C104.732 94.9927 104.752 94.8924 104.827 94.8422C111.605 90.2702 114.308 83.3939 114.334 83.3252C114.366 83.2416 114.462 83.2001 114.544 83.2316C114.627 83.2639 114.669 83.3574 114.637 83.441C114.61 83.511 111.874 90.4796 105.008 95.111L104.917 95.1383Z" fill="#D2F2FA"/>
<path d="M110.32 80.6882C110.32 82.2349 103.142 83.4892 94.2895 83.4892C85.4361 83.4892 78.2588 82.2349 78.2588 80.6882C78.2588 79.1409 85.4361 77.8871 94.2895 77.8871C103.142 77.8871 110.32 79.1409 110.32 80.6882Z" fill="#364568"/>
<path d="M46.2308 57.6654C45.718 63.5109 42.8649 68.0352 39.8582 67.7713C36.8515 67.5081 34.8303 62.5557 35.3425 56.7102C35.8554 50.8653 38.7085 46.3404 41.7152 46.6036C44.7219 46.8675 46.7437 51.8198 46.2308 57.6654Z" fill="#7B9B75"/>
<path d="M27.3312 63.8782C32.6422 66.3726 35.9078 70.6095 34.6244 73.3411C33.3415 76.0734 27.9953 76.2654 22.6843 73.7704C17.3733 71.276 14.1083 67.0385 15.3912 64.3074C16.6746 61.5751 22.0203 61.3831 27.3312 63.8782Z" fill="#7B9B75"/>
<path d="M29.3926 84.6946C25.0907 84.0455 21.874 81.7257 22.2079 79.5131C22.5418 77.3005 26.2992 76.0332 30.6011 76.6817C34.903 77.3309 38.1191 79.6506 37.7852 81.8632C37.4514 84.0758 33.6939 85.3432 29.3926 84.6946Z" fill="#7B9B75"/>
<path d="M47.582 69.1632C51.5631 64.8538 56.5885 63.0197 58.8054 65.0681C61.0223 67.116 59.5914 72.2702 55.6104 76.5802C51.6281 80.8902 46.6033 82.7237 44.3864 80.6758C42.1694 78.628 43.6003 73.4738 47.582 69.1632Z" fill="#7B9B75"/>
<path d="M42.6599 88.6559C42.5905 88.6559 42.5267 88.6113 42.505 88.5413C39.4104 78.5326 28.7376 80.0409 28.6305 80.0564C28.5425 80.0694 28.4589 80.0093 28.4453 79.9207C28.4316 79.8321 28.4923 79.7498 28.5809 79.7361C28.6924 79.7194 39.6389 78.1727 42.8147 88.4459C42.8414 88.5314 42.7931 88.6218 42.7076 88.6484L42.6599 88.6559Z" fill="white"/>
<path d="M42.1692 87.3006C42.0998 87.3006 42.036 87.256 42.0143 87.1872C38.2724 75.2032 27.127 69.0671 27.0149 69.0064C26.9362 68.9643 26.9065 68.8658 26.9492 68.7865C26.992 68.7085 27.0899 68.6787 27.1691 68.7215C27.2819 68.7822 38.5418 74.9777 42.324 87.09C42.3507 87.1754 42.303 87.2665 42.2175 87.2931L42.1692 87.3006Z" fill="white"/>
<path d="M42.3039 90.337C42.2463 90.337 42.1911 90.306 42.1614 90.2521C36.3679 79.6599 40.1551 55.052 40.1941 54.8048C40.2077 54.7162 40.2913 54.6549 40.3793 54.6698C40.4679 54.6834 40.5286 54.767 40.5144 54.855C40.4759 55.1015 36.7055 79.6011 42.4457 90.0967C42.4891 90.1753 42.46 90.2738 42.3813 90.3166L42.3039 90.337Z" fill="white"/>
<path d="M40.6954 88.1747C40.6087 88.1747 40.5374 88.1071 40.5331 88.0204C40.5294 87.9306 40.2655 78.9409 53.2344 69.8873C53.3063 69.8365 53.4085 69.8539 53.4599 69.9276C53.5119 70.0007 53.4934 70.1023 53.4196 70.1537C40.5963 79.1056 40.8527 87.917 40.857 88.0049C40.8614 88.0948 40.792 88.1703 40.7028 88.1747H40.6954Z" fill="white"/>
<path d="M33.6595 105.596H45.7562C46.4128 105.596 46.9616 105.129 47.0261 104.516L48.8769 86.8929C48.9506 86.1886 48.3616 85.5779 47.6071 85.5779H31.8092C31.0554 85.5779 30.4657 86.1886 30.54 86.8929L32.3903 104.516C32.4547 105.129 33.0041 105.596 33.6595 105.596Z" fill="#AA8888"/>
<path d="M36.3377 105.596H48.4345C49.0905 105.596 49.6399 105.129 49.7043 104.516L51.5546 86.8929C51.6283 86.1886 51.0392 85.5779 50.2854 85.5779H34.4869C33.733 85.5779 33.144 86.1886 33.2177 86.8929L35.0685 104.516C35.1329 105.129 35.6818 105.596 36.3377 105.596Z" fill="#B79A9A"/>
<path d="M61.1904 91.3609L61.6327 96.2866H71.0957V90.7087L61.1904 91.3609Z" fill="#F48462"/>
<path d="M78.0684 93.6367L79.0241 98.5773L89.4386 96.107L87.6187 90.7087L78.0684 93.6367Z" fill="#F48462"/>
<path d="M76.2053 62.5929C76.2053 62.5929 62.5209 59.2629 58.7684 65.0446C55.0159 70.8264 60.2631 92.8922 60.2631 92.8922H72.8641L76.2053 62.5929Z" fill="#59ACC9"/>
<path d="M105.269 67.6771C105.269 67.6771 108.713 78.2526 103.003 80.3847C97.2933 82.5161 85.4505 82.5812 85.4505 82.5812L90.7906 92.0045L73.6151 97.0931C73.6151 97.0931 59.3522 71.3398 68.0334 64.476C76.7147 57.6121 94.9866 67.6059 94.9866 67.6059L105.269 67.6771Z" fill="#68B6D8"/>
<path d="M72.269 94.4996L72.0485 104.58L71.9965 107.096C71.9965 107.096 45.8821 107.369 45.4472 107.096C45.1809 106.934 45.1165 105.786 45.4472 104.58C45.6615 103.795 46.0375 102.984 46.6409 102.4C48.1653 100.908 56.1045 98.2353 56.8639 97.8662C57.6289 97.5026 60.8982 93.6367 60.8982 93.6367L72.269 94.4996Z" fill="#EFA459"/>
<path d="M82.6147 78.2073C82.458 78.2073 82.3019 78.2519 82.1421 78.3418C81.8943 78.4811 81.7723 78.6533 81.7698 78.8689C81.7574 79.8414 83.9793 81.4593 85.1841 82.2262C84.9023 81.2512 84.0865 78.7673 82.9715 78.2848C82.852 78.2327 82.7337 78.2073 82.6147 78.2073ZM85.4492 82.7428L85.3656 82.7199C84.9624 82.4789 81.4261 80.3221 81.4459 78.8646C81.4502 78.5282 81.6311 78.2575 81.9835 78.0593C82.3546 77.8499 82.7312 77.8276 83.1004 77.9868C84.6347 78.6515 85.5676 82.3835 85.606 82.5421C85.6221 82.6059 85.5979 82.6722 85.5452 82.7112L85.4492 82.7428Z" fill="#107CC7"/>
<path d="M65.7061 38.6018C65.7061 38.6018 66.3373 42.7272 69.5242 43.0617C71.5572 43.2754 73.6217 39.0887 73.6217 39.0887L69.9417 36.1421L65.7061 38.6018Z" fill="#F48462"/>
<path d="M67.6656 42.3593C67.6656 42.3593 65.2913 54.1482 70.7807 58.3529C76.2706 62.5576 86.6566 56.9171 86.6566 56.9171L78.2739 48.3907C78.2739 48.3907 77.6891 48.5046 76.9055 47.9639C76.122 47.4237 72.525 41.5646 72.525 41.5646L67.6656 42.3593Z" fill="#F48462"/>
<path d="M83.3926 58.3529V65.9762L99.8619 65.4881L100.974 58.3529H83.3926Z" fill="#5C69A5"/>
<path d="M67.7264 40.2155L71.5495 39.3682C71.9565 39.2777 72.2136 38.8745 72.1231 38.4675L70.372 30.5673C70.2816 30.1604 69.8783 29.9033 69.4714 29.9938L65.6483 30.8411C65.2413 30.9316 64.9842 31.3348 65.074 31.7418L66.8258 39.642C66.9162 40.0489 67.3195 40.306 67.7264 40.2155Z" fill="#107CC7"/>
<path d="M68.3082 40.0866L72.1313 39.2392C72.5383 39.1488 72.7953 38.7455 72.7049 38.3386L70.9538 30.4384C70.8633 30.0314 70.4601 29.7744 70.0531 29.8648L66.2294 30.7122C65.8224 30.8026 65.5654 31.2059 65.6558 31.6128L67.4076 39.513C67.4974 39.92 67.9006 40.177 68.3082 40.0866Z" fill="white"/>
<path d="M69.3604 38.5412C69.4403 38.9011 69.7655 39.1352 70.0864 39.064C70.4073 38.9927 70.603 38.6434 70.5231 38.2835C70.4438 37.923 70.1186 37.6888 69.7971 37.7607C69.4763 37.8313 69.2811 38.1813 69.3604 38.5412Z" fill="#107CC7"/>
<path d="M86.6561 37.7043C86.6561 37.7043 85.0345 28.7728 91.5725 27.1834C98.1112 25.5939 98.442 34.8611 98.442 34.8611C98.442 34.8611 105.536 36.2604 105.536 43.1683C105.536 51.8019 97.2019 50.2942 97.2019 50.2942L89.3215 47.0224C89.3215 47.0224 81.4344 42.6585 86.6561 37.7043Z" fill="black"/>
<path d="M78.2744 48.3906C78.2744 48.3906 84.2519 44.4944 86.9761 42.835C89.701 41.1762 96.5116 40.335 101.167 43.3665C105.82 46.3979 107.977 50.4824 108.772 54.9107C109.567 59.3396 108.772 60.9285 108.772 60.9285H95.3204L80.1655 59.863C80.1655 59.863 80.1655 52.1995 78.2744 48.3906Z" fill="#5C69A5"/>
<path d="M90.2915 39.2833V39.378L90.3597 41.1762L90.4073 42.5867C90.4073 42.5867 90.2847 42.9131 91.9262 42.8177C94.1258 42.6814 94.8418 41.7418 94.8418 41.7418L94.957 38.4384L94.2899 38.561L90.2915 39.2833Z" fill="#F48462"/>
<path d="M90.2915 39.378L90.3597 41.1762C91.4294 41.0536 93.3769 40.6039 94.1741 38.9283C94.2354 38.7927 94.2763 38.67 94.2899 38.5678L90.2983 39.3508L90.2915 39.378Z" fill="black"/>
<path d="M89.651 30.7699C89.651 30.7699 87.5747 35.4367 88.2933 38.0717C89.0124 40.7055 91.4115 40.3078 92.8485 39.8092C94.285 39.3105 94.9564 38.4359 94.9564 38.4359C94.9564 38.4359 96.2919 38.8986 97.1957 37.6598C98.1 36.4203 97.558 34.9876 96.7961 34.6543C96.033 34.3217 95.1206 34.8674 95.1206 34.8674L95.8422 33.5121C95.8422 33.5121 92.8906 26.5795 89.651 30.7699Z" fill="#F48462"/>
<path d="M90.2913 30.081C90.2913 30.081 90.1265 32.5705 92.6247 33.7189C95.1216 34.8674 96.7971 34.6543 96.7971 34.6543L96.6559 31.4054L93.5433 27.9781L90.7336 28.8527L90.2913 30.081Z" fill="black"/>
<path d="M94.9561 34.1482V35.5667L96.2259 34.3303L94.9561 34.1482Z" fill="black"/>
<path d="M89.2058 62.5533C89.2058 62.5533 96.7962 61.5721 97.6677 60.9285C99.7397 59.3985 109.018 59.9665 109.018 59.9665C109.018 59.9665 108.885 65.1288 105.365 67.7391C101.846 70.35 88.6768 67.9243 88.6768 67.9243L89.2058 62.5533Z" fill="#F48462"/>
<path d="M97.668 41.8495C97.668 41.8495 103.398 42.5717 106.425 46.8495C109.453 51.1279 110.058 61.3825 110.058 61.3825L97.668 60.9285V41.8495Z" fill="#5C69A5"/>
<path d="M64.2938 36.1414C64.2938 36.1414 61.9765 36.2021 62.5297 35.0543C63.0828 33.9059 67.137 32.8219 67.7508 33.9914C68.3647 35.1603 64.2938 36.1414 64.2938 36.1414Z" fill="#F48462"/>
<path d="M64.806 37.9898C64.806 37.9898 62.4887 38.0499 63.0419 36.9021C63.595 35.7543 67.6492 34.6697 68.263 35.8392C68.8769 37.008 64.806 37.9898 64.806 37.9898Z" fill="#F48462"/>
<path d="M66.3476 39.3786C65.8812 39.6103 65.3633 39.736 64.8436 39.6964C64.3797 39.6617 63.9541 39.4914 64.1084 38.9488C64.4181 37.8648 67.7896 36.3075 68.5007 37.2342C69.0316 37.9255 67.2755 38.9184 66.3476 39.3786Z" fill="#F48462"/>
<path d="M73.3374 34.6672C73.3374 34.6672 69.458 33.8867 70.0285 35.1789C70.4305 36.0919 71.927 36.0492 71.927 36.0492C71.927 36.0492 69.3428 40.6366 71.6309 42.2639C73.0915 43.302 74.7646 37.594 73.3374 34.6672Z" fill="#F48462"/>
<path d="M72.0485 104.58L71.9965 107.096C71.9965 107.096 45.8821 107.369 45.4472 107.096C45.1809 106.934 45.1165 105.786 45.4472 104.58H72.0485Z" fill="white"/>
<path d="M79.6646 62.3754H59.1783L53.3271 49.1407H73.0057C73.4969 49.1407 73.9417 49.4306 74.1399 49.8797L79.6646 62.3754Z" fill="white"/>
<path d="M77.8856 62.3754H57.3992L52.1775 50.5642C51.8814 49.894 52.372 49.1407 53.1041 49.1407H72.0344L77.8856 62.3754Z" fill="#FE922F"/>
<path d="M86.5328 64.0473H57.6081C57.1466 64.0473 56.7725 63.6732 56.7725 63.2111C56.7725 62.7496 57.1466 62.3755 57.6081 62.3755H86.5328C86.9943 62.3755 87.3684 62.7496 87.3684 63.2111C87.3684 63.6732 86.9943 64.0473 86.5328 64.0473Z" fill="black"/>
<path d="M89.2069 62.5532C89.2069 62.5532 82.4267 61.1205 81.4876 61.4531C80.5486 61.7864 77.0488 65.0997 77.3251 65.8244C77.6019 66.5498 78.4437 66.2828 78.4437 66.2828C78.4437 66.2828 77.6781 66.8706 78.0182 67.3556C78.3583 67.8406 79.3134 67.578 79.3134 67.578C79.3134 67.578 78.6674 68.0314 79.5624 68.3102C80.4569 68.5895 82.7389 67.5619 82.7389 67.5619C82.7389 67.5619 84.2366 68.6409 86.5799 68.3523C88.9232 68.0636 89.643 67.4417 89.643 67.4417L89.2069 62.5532Z" fill="#F48462"/>
<path d="M58.545 97.878L58.467 97.8581C58.0389 97.6215 54.2821 95.5167 54.1062 94.3571C54.0796 94.1818 54.1285 94.0239 54.2462 93.9012C54.367 93.7755 54.5435 93.7024 54.7256 93.7148C55.5476 93.7204 56.9977 94.9487 57.9826 95.8822C57.0881 94.3869 55.8233 91.9885 56.2451 91.0017C56.351 90.7546 56.5567 90.5978 56.8404 90.5489C57.1848 90.4876 57.5106 90.5718 57.8122 90.7961C59.1713 91.8002 59.642 95.4133 59.6612 95.5669C59.673 95.6555 59.6092 95.7366 59.5212 95.7478C59.4271 95.7589 59.3503 95.6957 59.3397 95.6071C59.3348 95.5712 58.8677 91.9785 57.6196 91.0568C57.3879 90.8853 57.1494 90.8233 56.8955 90.8679C56.7177 90.8995 56.6062 90.9825 56.543 91.1293C56.0952 92.1761 58.1851 95.6747 59.0288 96.934C59.0752 97.004 59.061 97.0987 58.9947 97.1514C58.9284 97.204 58.8337 97.1966 58.7754 97.1347C57.9745 96.2761 55.6851 94.0456 54.7238 94.0388C54.6092 94.0233 54.5373 94.066 54.4797 94.1261C54.432 94.1763 54.4153 94.2326 54.4271 94.3088C54.5553 95.1574 57.5 96.9538 58.6237 97.5744C58.7017 97.6172 58.7302 97.7163 58.6875 97.7943C58.6577 97.8482 58.602 97.878 58.545 97.878Z" fill="white"/>
<path d="M93.9084 102.582L81.396 111.773H66.8469C66.8469 111.773 64.9849 110.651 66.5291 108.673C66.6128 108.549 66.7236 108.426 66.8469 108.297C69.3568 105.663 73.9821 102.763 75.0518 102.218C76.129 101.674 77.4589 96.4972 77.4589 96.4972L89.4393 93.0272L92.6374 99.8576L93.9084 102.582Z" fill="#FE922F"/>
<path d="M75.0534 102.383L75.0219 102.38C74.46 102.27 69.5393 101.252 69.8106 99.4222C69.8515 99.146 69.9989 98.9385 70.2361 98.822C71.1089 98.394 73.1419 99.2717 74.3064 99.8515C73.6065 99.0382 72.5918 97.6903 72.6891 96.807C72.7207 96.5239 72.857 96.3028 73.0948 96.1504C73.3011 96.0179 73.534 95.9875 73.7941 96.0594C75.2356 96.4626 77.0821 100.197 77.1601 100.356C77.1998 100.437 77.1663 100.533 77.0858 100.573C77.0065 100.613 76.9092 100.58 76.869 100.499C76.8504 100.462 75.0095 96.7364 73.7062 96.3722C73.5408 96.3245 73.3971 96.3418 73.2701 96.4236C73.1165 96.5215 73.0323 96.659 73.0118 96.8423C72.9065 97.8012 74.5325 99.6731 75.168 100.313C75.225 100.371 75.2312 100.462 75.1823 100.526C75.1333 100.59 75.0442 100.61 74.9742 100.569C73.9936 100.018 71.2551 98.6845 70.3786 99.1132C70.2362 99.1838 70.1575 99.2965 70.1315 99.4699C69.9394 100.763 73.6424 101.779 75.085 102.062C75.1724 102.079 75.23 102.164 75.2126 102.252C75.1971 102.329 75.1296 102.383 75.0534 102.383Z" fill="white"/>
<path d="M93.9084 102.582L81.396 111.773H66.8469C66.8469 111.773 64.9849 110.651 66.5291 108.673H80.4557L92.6374 99.8577L93.9084 102.582Z" fill="white"/>
<path d="M66.7339 55.7581C66.7339 56.7231 65.9516 57.5055 64.9865 57.5055C64.0221 57.5055 63.2397 56.7231 63.2397 55.7581C63.2397 54.7936 64.0221 54.0113 64.9865 54.0113C65.9516 54.0113 66.7339 54.7936 66.7339 55.7581Z" fill="white"/>
<path d="M83.5285 60.0253C83.44 60.0253 83.3675 59.9547 83.3663 59.8661C83.2616 53.3429 84.4769 49.137 84.4893 49.0949C84.5147 49.0094 84.6026 48.9611 84.6906 48.9853C84.7767 49.0107 84.8256 49.1005 84.8002 49.1866C84.7878 49.2281 83.5874 53.3913 83.6908 59.8606C83.6921 59.9498 83.6202 60.0235 83.531 60.0253H83.5285Z" fill="white"/>
<path d="M91.3189 43.1013C90.5409 43.1013 89.9549 43.0047 89.8961 42.9954C89.8081 42.9799 89.7486 42.8963 89.7635 42.8083C89.779 42.7197 89.8639 42.6627 89.9506 42.6751C89.9846 42.6813 93.3537 43.2301 94.7171 41.6357C94.7759 41.5676 94.8787 41.5602 94.9463 41.6184C95.0144 41.6766 95.0224 41.7788 94.9642 41.847C94.0741 42.8857 92.4828 43.1013 91.3189 43.1013Z" fill="white"/>
<path d="M96.8435 56.5157L96.8132 56.5219C96.7872 56.5311 96.75 56.5522 96.7178 56.6259C96.4843 57.163 97.0417 58.88 97.4902 60.0532C97.4388 58.5771 97.2604 56.7938 96.8894 56.533L96.8435 56.5157ZM97.668 61.0907C97.6048 61.0907 97.5453 61.053 97.5193 60.9923C97.3638 60.6311 96.0129 57.4343 96.4198 56.4965C96.4966 56.3218 96.6162 56.2481 96.7035 56.2165C96.8342 56.1694 96.9618 56.1874 97.0758 56.2679C97.7937 56.7721 97.8303 60.239 97.8303 60.9285C97.8303 61.0053 97.7764 61.0715 97.7008 61.087L97.668 61.0907Z" fill="white"/>
<path d="M63.9117 36.3043C63.8417 36.3043 63.7779 36.2591 63.7568 36.1891C63.7302 36.1037 63.7785 36.0132 63.864 35.9872L66.6874 35.1281C66.7735 35.1014 66.8633 35.1504 66.8893 35.2358C66.9159 35.3213 66.8676 35.4124 66.7815 35.4384L63.9588 36.2975L63.9117 36.3043Z" fill="black"/>
<path d="M64.8058 38.1516C64.7395 38.1516 64.6782 38.1119 64.654 38.0463C64.6225 37.9626 64.6646 37.8691 64.7488 37.8381L67.5176 36.8C67.6019 36.7684 67.6954 36.8105 67.7264 36.8948C67.758 36.9784 67.7153 37.0719 67.631 37.1035L64.8628 38.1417L64.8058 38.1516Z" fill="black"/>
<path d="M70.5413 41.3384C70.4602 41.3384 70.3908 41.2783 70.3803 41.196C70.1492 39.311 70.9941 37.7365 71.0307 37.6702C71.0722 37.5915 71.1707 37.5624 71.25 37.6051C71.3286 37.6479 71.3577 37.747 71.315 37.8257C71.3069 37.8405 70.4844 39.3779 70.7018 41.1563C70.7129 41.2455 70.6497 41.326 70.5612 41.3372L70.5413 41.3384Z" fill="black"/>
<path d="M91.1475 37.91C91.0855 37.91 91.026 37.8741 91 37.814C90.9635 37.7322 91 37.6362 91.0812 37.5997C91.0849 37.5978 91.4541 37.4275 91.6721 37.0056C91.7142 36.9257 91.8127 36.8954 91.8908 36.9369C91.9707 36.9778 92.0016 37.0756 91.9601 37.1555C91.6876 37.6814 91.2323 37.8877 91.2125 37.8958L91.1475 37.91Z" fill="black"/>
<path d="M89.0503 32.4937C88.9722 32.4937 88.9041 32.438 88.8905 32.3587C88.8756 32.2701 88.9345 32.1871 89.023 32.1716L89.8952 32.0242C89.985 32.01 90.0674 32.0688 90.0823 32.1574C90.0971 32.2454 90.0383 32.329 89.9497 32.3438L89.0775 32.4919L89.0503 32.4937Z" fill="black"/>
<path d="M91.9394 35.019C91.8304 35.0073 91.7678 34.9261 91.7784 34.8375L91.8781 34.0255L91.5095 33.5851C91.4513 33.5169 91.4606 33.4141 91.5293 33.3571C91.5969 33.2995 91.6991 33.3082 91.7573 33.3769L92.1717 33.8712L92.2089 33.9951L92.1005 34.8766C92.0899 34.9589 92.0205 35.019 91.9394 35.019Z" fill="black"/>
<path d="M89.357 34.8891C89.2486 34.8773 89.1854 34.7961 89.196 34.7076L89.2957 33.8955L88.9265 33.4551C88.8683 33.3869 88.8776 33.2847 88.9463 33.2271C89.0138 33.1689 89.1154 33.1776 89.1743 33.247L89.5887 33.7413L89.6259 33.8651L89.5181 34.7466C89.5082 34.829 89.4382 34.8891 89.357 34.8891Z" fill="black"/>
<path d="M89.8506 36.782C89.7819 36.782 89.7181 36.738 89.6964 36.6687C89.2374 35.231 90.2594 34.3464 90.3028 34.3099C90.3709 34.2523 90.4731 34.2603 90.5314 34.3291C90.589 34.3972 90.5809 34.4994 90.5122 34.5577C90.4756 34.5886 89.6134 35.3431 90.0049 36.5702C90.0321 36.6557 89.9857 36.7467 89.9002 36.774L89.8506 36.782Z" fill="black"/>
<path d="M95.291 36.9592L95.1715 36.9065C95.1108 36.8402 95.1157 36.738 95.1814 36.6773L96.5689 35.4069C96.634 35.3468 96.7368 35.3505 96.7981 35.4168C96.8582 35.4831 96.8539 35.5853 96.7876 35.646L95.4007 36.9164L95.291 36.9592Z" fill="black"/>
<path d="M96.8959 36.782L96.8438 36.7734L95.8137 36.4246C95.7289 36.3961 95.6836 36.3045 95.7121 36.219C95.7413 36.1347 95.8292 36.0877 95.9178 36.1174L96.9479 36.4661C97.0328 36.4946 97.078 36.5869 97.0495 36.6718C97.0266 36.7393 96.9634 36.782 96.8959 36.782Z" fill="black"/>
<path d="M78.6608 66.1385L78.5537 66.0982C78.4862 66.0388 78.48 65.9366 78.5388 65.8697L80.9719 63.1046C81.0314 63.0364 81.1336 63.0308 81.2005 63.0897C81.268 63.1485 81.2742 63.2514 81.2154 63.3183L78.7823 66.0834L78.6608 66.1385Z" fill="black"/>
<path d="M79.6641 67.4634L79.5526 67.4188C79.4875 67.3575 79.4851 67.2547 79.5458 67.1896L82.1096 64.4827C82.1709 64.4177 82.2731 64.4146 82.3388 64.4765C82.4044 64.5379 82.4063 64.6407 82.3456 64.7057L79.7818 67.4126L79.6641 67.4634Z" fill="black"/>
</svg>
