<svg width="139" height="138" viewBox="0 0 139 138" fill="none" xmlns="http://www.w3.org/2000/svg">
<path fill-rule="evenodd" clip-rule="evenodd" d="M81.1125 15.4333C101.659 18.3342 97.4973 47.1484 103.424 66.9739C108.562 84.1616 124.388 103.202 110.896 115.067C95.6116 128.508 72.7594 120.217 55.957 108.716C37.1858 95.8669 18.4108 77.7271 24.3223 55.806C30.9956 31.0596 55.6612 11.84 81.1125 15.4333Z" fill="#EAF6FF"/>
<path d="M107.112 112.168C107.112 113.057 89.2262 113.777 67.1632 113.777C45.0997 113.777 27.2139 113.057 27.2139 112.168C27.2139 111.279 45.0997 110.559 67.1632 110.559C89.2262 110.559 107.112 111.279 107.112 112.168Z" fill="#DDD0D0"/>
<path d="M36.3707 112.713C35.5814 112.375 35.2595 111.329 35.6389 110.337L48.1928 77.5001L53.3761 79.7214L38.6062 111.581C38.1551 112.554 37.1672 113.054 36.3707 112.713Z" fill="#107CC7"/>
<path d="M66.2027 112.777C65.411 113.109 64.436 112.614 63.9861 111.652L49.1069 79.8006L54.3073 77.618L66.9428 110.382C67.3287 111.384 67.0015 112.442 66.2027 112.777Z" fill="#107CC7"/>
<path d="M57.8421 27.0313C57.8421 27.0313 58.7989 27.7167 59.2641 30.0738C59.4926 31.2326 59.1172 33.5908 59.1172 33.5908C59.1172 33.5908 62.2654 38.3418 61.7873 41.0365C61.3092 43.7307 56.0396 42.1008 56.0396 42.1008L54.2822 37.8696L55.8557 33.9485L57.8421 27.0313Z" fill="black"/>
<path d="M41.5689 38.7869C41.5689 38.7869 27.9156 45.7235 30.0705 64.5672C32.051 81.875 48.0045 87.5958 59.8847 83.5231C71.7643 79.4505 67.8761 67.5039 67.8761 67.5039L41.5689 38.7869Z" fill="#6876AA"/>
<path d="M74.0928 36.0587L74.7101 39.043L70.769 38.7511V37.2716L74.0928 36.0587Z" fill="#FFB192"/>
<path d="M66.8904 44.8548L68.4797 38.1027L74.6151 38.6178C74.6151 38.6178 78.3765 54.2329 72.5688 56.9082C67.2034 59.3804 62.8706 54.3269 62.8706 54.3269L66.8904 44.8548Z" fill="#FFB192"/>
<path d="M65.9751 57.2083H84.5246L89.823 45.2242H72.0042C71.5596 45.2242 71.1572 45.4867 70.9775 45.8938L65.9751 57.2083Z" fill="white"/>
<path d="M51.7102 75.4307C46.5528 75.4307 42.3721 74.4898 42.3721 73.3286C42.3721 72.168 46.5528 71.2271 51.7102 71.2271C56.8677 71.2271 61.049 72.168 61.049 73.3286C61.049 74.4898 56.8677 75.4307 51.7102 75.4307Z" fill="#525F95"/>
<path d="M67.5859 57.2083H86.1354L90.8635 46.5134C91.132 45.9067 90.6879 45.2242 90.0242 45.2242H72.8838L67.5859 57.2083Z" fill="#7C576C"/>
<path d="M77.6895 51.2163C77.6895 52.0868 78.3949 52.7922 79.2647 52.7922C80.1352 52.7922 80.8406 52.0868 80.8406 51.2163C80.8406 50.3465 80.1352 49.6405 79.2647 49.6405C78.3949 49.6405 77.6895 50.3465 77.6895 51.2163Z" fill="white"/>
<path d="M49.1362 29.0236C49.1362 29.0236 47.5404 28.7428 45.8765 30.2329C44.2125 31.7224 44.5291 34.0665 44.5291 34.0665C44.5291 34.0665 41.711 34.8935 40.7307 37.9864C39.7499 41.0794 42.1045 42.4773 42.1045 42.4773L50.4301 41.9204L53.0262 31.7165L50.8589 28.5654L49.1362 29.0236Z" fill="black"/>
<path d="M72.0953 98.3764L72.5717 105.494H63.5571V98.3764H72.0953Z" fill="#FFA98F"/>
<path d="M89.9402 79.7066L94.8163 84.9146L87.7788 90.6658L83.2744 85.1542L89.9402 79.7066Z" fill="#FFA98F"/>
<path d="M35.4117 71.9614L35.3019 71.9121C32.5625 68.8303 32.519 63.3415 32.519 63.2863C32.5185 63.2053 32.5842 63.1395 32.6653 63.1389C32.7463 63.1389 32.8121 63.2047 32.8127 63.2858C32.8127 63.3398 32.8568 68.7193 35.5215 71.7171C35.5756 71.7776 35.5697 71.8704 35.5092 71.9244L35.4117 71.9614Z" fill="#92B4EA"/>
<path d="M75.4345 81.239V100.295H60.0331L57.1616 73.9976L69.4306 72.6244L75.4345 81.239Z" fill="#A37B90"/>
<path d="M93.9683 77.5846C93.9683 77.5846 81.4379 62.7054 73.8676 60.356C66.2973 58.0067 42.8036 58.7896 42.8036 58.7896C42.8036 58.7896 40.4542 69.7535 46.7194 72.6245C52.984 75.496 65.0768 74.9739 67.1231 76.0182C69.1688 77.0624 81.6986 89.3315 81.6986 89.3315L93.9683 77.5846Z" fill="#A37B90"/>
<path d="M39.1777 50.4852C39.1777 50.4852 40.3483 38.7148 46.1871 37.2717C52.0265 35.8292 56.0809 37.0468 59.3495 38.44C62.5088 39.7867 66.8898 44.8549 66.8898 44.8549L64.3718 56.0585L61.1285 55.4494L61.182 59.7294L43.9846 60.1881L41.8014 51.2165L39.1777 50.4852Z" fill="#92B4EA"/>
<path d="M91.0204 61.5688H37.4675C36.6658 61.5688 36.0156 60.9187 36.0156 60.1163C36.0156 59.3146 36.6658 58.6644 37.4675 58.6644H91.0204C91.8227 58.6644 92.4723 59.3146 92.4723 60.1163C92.4723 60.9187 91.8227 61.5688 91.0204 61.5688Z" fill="#107CC7"/>
<path d="M40.4917 50.8511C40.4917 50.8511 39.3112 55.9833 40.638 58.6645C42.5298 62.4875 58.3687 60.4536 58.3687 60.4536L59.4406 55.9833L50.5188 53.221L50.5482 53.0419C50.5482 53.0419 47.033 52.1156 40.4917 50.8511Z" fill="#FFB192"/>
<path d="M51.4066 33.5907L50.8979 37.2869C50.8979 37.2869 51.4177 38.441 53.5557 38.9144C55.1491 39.2668 55.7653 38.9808 55.7653 38.9808L55.7982 37.0778L55.8281 35.2218L52.0415 33.8256L51.4066 33.5907Z" fill="#FFB192"/>
<path d="M52.0416 33.8257C52.0369 33.9279 52.0593 34.0524 52.0998 34.1969C52.673 36.1569 54.8791 36.8664 55.7983 37.0778L55.8282 35.2218L52.0416 33.8257Z" fill="black"/>
<path d="M57.8106 26.9103C57.8106 26.9103 59.1128 31.8117 57.9939 34.2815C56.8744 36.7507 54.5861 35.9836 53.2558 35.2688C51.9254 34.554 51.4045 33.5913 51.4045 33.5913C51.4045 33.5913 50.0224 33.8351 49.3311 32.4783C48.6398 31.1216 49.3963 29.8018 50.1957 29.595C50.9957 29.3889 51.8044 30.0673 51.8044 30.0673L51.3099 28.6253C51.3099 28.6253 55.2933 22.2926 57.8106 26.9103Z" fill="#FFB192"/>
<path d="M56.7265 32.715L56.6613 32.6998C56.5891 32.6639 56.5591 32.5758 56.595 32.503C56.9908 31.7019 56.5063 30.6852 56.501 30.6746C56.4657 30.6018 56.4963 30.5143 56.5691 30.4784C56.6419 30.4444 56.7295 30.4737 56.7653 30.546C56.7882 30.593 57.3191 31.7013 56.8581 32.6328C56.8328 32.6845 56.7806 32.715 56.7265 32.715Z" fill="black"/>
<path d="M51.2887 32.1887L51.1671 32.1247L50.1322 30.6034C50.087 30.5365 50.104 30.4454 50.171 30.3996C50.2379 30.3556 50.329 30.3714 50.3748 30.4384L51.4097 31.959C51.4555 32.0266 51.4379 32.1176 51.3709 32.1634L51.2887 32.1887Z" fill="black"/>
<path d="M50.9091 31.6308L50.0246 31.6231C49.9435 31.6226 49.8783 31.5562 49.8789 31.4751C49.8795 31.3947 49.9447 31.3295 50.0257 31.3295L50.9103 31.3371C50.9913 31.3383 51.0565 31.4046 51.0559 31.4851C51.0554 31.5662 50.9896 31.6308 50.9091 31.6308Z" fill="black"/>
<path d="M54.4019 32.9135C54.4748 33.1014 54.6052 33.3375 54.8336 33.5014C55.0762 33.6759 55.3669 33.6042 55.5625 33.5173L54.4019 32.9135ZM55.1737 33.9032C55.0063 33.9032 54.8295 33.8597 54.6621 33.7399C54.1212 33.3516 54.0301 32.6756 54.0266 32.6468C54.0196 32.5928 54.0431 32.5393 54.0883 32.5082L54.2398 32.4982L55.9384 33.3822L56.0165 33.5008L55.9578 33.63C55.9373 33.6459 55.5831 33.9032 55.1737 33.9032Z" fill="black"/>
<path d="M54.3889 28.9031L54.3019 28.8749C54.2367 28.8268 54.2227 28.7352 54.2708 28.6694C54.669 28.1284 55.6293 28.3416 55.6699 28.351C55.7492 28.3692 55.7985 28.4479 55.7803 28.5272C55.7621 28.6065 55.6828 28.6576 55.6047 28.6377C55.3791 28.586 54.7424 28.5237 54.5075 28.8432L54.3889 28.9031Z" fill="black"/>
<path d="M58.0079 28.9419L57.8828 28.872C57.8599 28.8362 57.6525 28.5331 57.2155 28.7182C57.141 28.7493 57.0546 28.7152 57.0229 28.64C56.9912 28.5655 57.0264 28.4791 57.101 28.4474C57.6467 28.2177 58.0149 28.5238 58.1336 28.7187C58.1753 28.7881 58.1535 28.8785 58.0842 28.9208L58.0079 28.9419Z" fill="black"/>
<path d="M74.9708 83.0181L74.8627 82.9711C74.804 82.9071 68.9499 76.5785 67.0904 76.1615C65.195 75.7368 57.3246 75.0432 57.2453 75.0361C57.1643 75.0291 57.1043 74.958 57.112 74.8769C57.1184 74.7965 57.193 74.7383 57.2712 74.7436C57.5954 74.7718 65.2402 75.4461 67.1544 75.8748C69.1032 76.3118 74.8357 82.5083 75.0782 82.772C75.1334 82.8313 75.1299 82.9241 75.07 82.9793L74.9708 83.0181Z" fill="#FE922F"/>
<path d="M67.9975 72.5081L67.9534 72.5199C67.6069 72.699 67.3802 74.195 67.2979 75.4566C67.9499 74.3453 68.5883 72.8705 68.0897 72.5428L67.9975 72.5081ZM67.1235 76.1649L67.0789 76.1579C67.016 76.1385 66.9743 76.0792 66.9767 76.0134C66.9949 75.4501 67.1206 72.6209 67.8183 72.2591C67.9135 72.2092 68.0662 72.1751 68.2512 72.2973C69.2567 72.9586 67.4548 75.779 67.2462 76.0985L67.1235 76.1649Z" fill="#FE922F"/>
<path d="M78.0827 85.9782L77.9788 85.9354C77.9212 85.8784 77.9212 85.7856 77.9782 85.728L87.0256 76.6506C87.0826 76.5925 87.1766 76.5931 87.233 76.6501C87.2905 76.7076 87.2905 76.8004 87.2336 76.8574L78.1867 85.9348L78.0827 85.9782Z" fill="#FE922F"/>
<path d="M70.95 96.6891H60.0272C59.9462 96.6891 59.8804 96.6233 59.8804 96.5423C59.8804 96.4612 59.9462 96.3954 60.0272 96.3954H70.95C71.0311 96.3954 71.0969 96.4612 71.0969 96.5423C71.0969 96.6233 71.0311 96.6891 70.95 96.6891Z" fill="#FE922F"/>
<path d="M74.5213 103.78C74.5213 103.78 73.9798 100.813 72.5713 100.671C71.1635 100.53 69.146 103.78 69.146 103.78C69.146 103.78 63.6449 103.356 63.2555 103.78C62.8667 104.204 62.8667 113.529 63.2555 113.671C63.6449 113.812 86.4603 113.812 87.4975 113.671C88.5348 113.529 87.0511 108.726 85.006 107.877C82.9603 107.03 80.7577 107.027 80.7577 107.027L74.5213 103.78Z" fill="#6876AA"/>
<path d="M94.8764 82.0842C94.8764 82.0842 92.6386 80.0655 91.4681 80.7962C90.2981 81.5274 90.7398 85.3005 90.7398 85.3005C90.7398 85.3005 86.246 88.2572 86.2072 88.824C86.1679 89.3914 91.8915 96.7543 92.278 96.6333C92.6639 96.5117 110.222 82.8619 110.934 82.13C111.645 81.3976 107.555 78.4926 105.46 79.0465C103.366 79.6009 101.669 80.9166 101.669 80.9166L94.8764 82.0842Z" fill="#6876AA"/>
<path d="M59.7561 58.722H85.9463C86.3645 58.722 86.7028 58.3831 86.7028 57.9649C86.7028 57.5467 86.3645 57.2084 85.9463 57.2084H59.7561C59.3379 57.2084 58.999 57.5467 58.999 57.9649C58.999 58.3831 59.3379 58.722 59.7561 58.722Z" fill="black"/>
<path d="M59.4403 55.9832C59.4403 55.9832 62.0082 56.3861 63.5593 56.8472C65.1111 57.3083 67.518 57.841 68.5347 57.5743C69.5508 57.3083 69.6583 57.7341 69.3905 58.3279C69.1232 58.9211 67.9462 59.2365 67.9462 59.2365C67.9462 59.2365 69.1767 64.1631 68.6951 64.5661C68.2135 64.9696 66.8226 63.4143 66.8226 63.4143C66.8226 63.4143 66.5554 63.7596 66.1807 63.8172C65.8065 63.8748 65.2714 63.6445 65.2714 63.6445C65.2714 63.6445 65.1287 64.105 64.4779 64.2207C63.8272 64.3358 63.399 63.9905 63.399 63.9905C63.399 63.9905 63.0243 64.8151 62.5967 64.633C62.1685 64.4509 60.2426 63.8748 60.3495 63.2986C60.4564 62.723 62.0616 62.8381 62.0616 62.8381L62.276 61.859C62.276 61.859 60.6173 63.1259 59.0656 62.2619C57.5144 61.3979 57.6789 59.2365 57.6789 59.2365L59.4403 55.9832Z" fill="#FFB192"/>
<path d="M66.8225 63.561L66.7285 63.527C66.6663 63.4747 66.658 63.3825 66.7097 63.3202C67.8468 61.9547 66.3779 59.2952 66.3632 59.2687C66.3232 59.1977 66.3485 59.1084 66.4196 59.069C66.4901 59.0285 66.5799 59.0544 66.6193 59.1248C66.6845 59.2411 68.2016 61.987 66.9353 63.5082L66.8225 63.561Z" fill="black"/>
<path d="M65.2715 63.7914L65.1798 63.7597C65.1164 63.7092 65.1058 63.6164 65.1569 63.5529C65.8388 62.6966 65.3278 61.3733 65.3231 61.3598C65.2932 61.2846 65.3302 61.1989 65.4054 61.1689C65.48 61.1401 65.5663 61.176 65.5957 61.2517C65.6197 61.3122 66.176 62.7453 65.386 63.7362L65.2715 63.7914Z" fill="black"/>
<path d="M63.3982 64.1374L63.2836 64.0822C63.2331 64.0187 63.2431 63.9265 63.3065 63.8754C64.0372 63.2904 63.9379 62.0018 63.9368 61.9889C63.9297 61.9084 63.9896 61.8373 64.0707 61.8303C64.1406 61.8256 64.2222 61.8826 64.2293 61.9636C64.2345 62.0235 64.3438 63.4208 63.4898 64.1051L63.3982 64.1374Z" fill="black"/>
<path d="M77.4154 29.2567H70.769V37.9459H77.4154V29.2567Z" fill="#A37B90"/>
<path d="M70.769 29.2567C70.769 29.4676 72.258 29.6385 74.0928 29.6385C75.9277 29.6385 77.4154 29.4676 77.4154 29.2567C77.4154 29.0459 75.9277 28.8749 74.0928 28.8749C72.258 28.8749 70.769 29.0459 70.769 29.2567Z" fill="white"/>
<path d="M68.8725 34.0629C68.8725 35.5084 69.7236 36.6842 70.7684 36.6842C71.8139 36.6842 72.6656 35.5084 72.6656 34.0629C72.6656 32.6175 71.8139 31.4416 70.7684 31.4416C69.7236 31.4416 68.8725 32.6175 68.8725 34.0629ZM68.2852 34.0629C68.2852 32.2932 69.3993 30.8542 70.7684 30.8542C72.1387 30.8542 73.2529 32.2932 73.2529 34.0629C73.2529 35.8326 72.1387 37.2716 70.7684 37.2716C69.3993 37.2716 68.2852 35.8326 68.2852 34.0629Z" fill="#A37B90"/>
<path d="M68.479 38.1027C68.479 38.1027 67.8852 34.3285 68.1701 33.6013C68.556 32.6152 70.7691 32.6152 70.7691 32.6152V35.146C70.7691 35.146 71.9643 36.6291 71.4258 39.0272C70.8866 41.4253 68.479 38.1027 68.479 38.1027Z" fill="#FFB192"/>
<path d="M73.1412 32.8289C73.3503 32.5458 73.6392 32.3338 73.9558 32.1793C75.0271 31.656 78.2863 30.721 79.0598 31.7165C79.8005 32.6698 78.0055 33.2459 78.0055 33.2459C78.0055 33.2459 79.5444 33.0709 79.3047 34.1604C79.1045 35.0702 78.1171 35.2294 78.1171 35.2294C78.1171 35.2294 79.7353 35.2012 78.9611 36.4299C78.1876 37.6592 74.7475 38.3329 73.5529 38.1133C72.3582 37.893 73.4483 36.4487 73.4483 36.4487C73.4483 36.4487 72.1914 36.0423 72.3007 35.3275C72.4158 34.5716 73.4736 34.4388 73.4736 34.4388C73.4736 34.4388 72.3876 33.8491 73.1412 32.8289Z" fill="#FFB192"/>
<path d="M73.8667 34.5517C73.8027 34.5517 73.7433 34.5088 73.7251 34.4442C73.7034 34.3661 73.7492 34.285 73.8273 34.2633L77.9675 33.1044C78.0462 33.0815 78.1261 33.1285 78.1484 33.2061C78.1701 33.2842 78.1243 33.3652 78.0468 33.387L73.906 34.5458L73.8667 34.5517Z" fill="black"/>
<path d="M73.949 36.4881C73.8838 36.4881 73.8244 36.4452 73.8068 36.3794C73.7857 36.3013 73.8327 36.2203 73.9108 36.1997L78.0792 35.0879C78.1585 35.0673 78.2383 35.1137 78.2589 35.1918C78.28 35.27 78.2336 35.3504 78.1549 35.3716L73.9866 36.4834L73.949 36.4881Z" fill="black"/>
<path d="M71.4257 39.1741L71.3752 39.1653C71.2994 39.1377 71.2601 39.0537 71.2877 38.9773C71.9385 37.1789 70.661 35.2477 70.6475 35.2283C70.6029 35.1608 70.6211 35.0697 70.688 35.0245C70.755 34.9799 70.846 34.9963 70.8918 35.0645C70.9482 35.1479 72.2662 37.1366 71.5638 39.0772C71.542 39.1371 71.4856 39.1741 71.4257 39.1741Z" fill="black"/>
<path d="M55.4185 39.2445C54.9157 39.2445 54.1709 39.1852 53.1454 38.9626C50.9623 38.4886 50.3937 37.1195 50.3708 37.0613C50.3409 36.9862 50.3773 36.9016 50.4525 36.871C50.5271 36.8405 50.6128 36.8769 50.6434 36.9521C50.6486 36.965 51.1861 38.236 53.2077 38.6759C55.2646 39.1229 56.1562 38.888 56.165 38.8856C56.2425 38.8645 56.3241 38.9097 56.3459 38.9878C56.3676 39.0659 56.3224 39.1464 56.2449 39.1681C56.2249 39.174 55.9659 39.2445 55.4185 39.2445Z" fill="#A37B90"/>
<path d="M54.9228 30.6699C54.837 30.6675 54.7736 30.5994 54.7759 30.5183L54.8041 29.6461L54.847 29.5469L55.2699 29.1205C55.3269 29.0629 55.4203 29.0617 55.4778 29.1199C55.5348 29.1769 55.5354 29.2697 55.4784 29.3278L55.0955 29.7131L55.0696 30.5277C55.0673 30.607 55.0015 30.6699 54.9228 30.6699Z" fill="black"/>
<path d="M57.4935 30.8731C57.4107 30.8719 57.3461 30.8055 57.3467 30.7239L57.3584 29.8511L57.3943 29.7571L57.7655 29.3254C57.8183 29.2637 57.9111 29.2567 57.9722 29.3096C58.0339 29.3624 58.0409 29.4552 57.9881 29.5169L57.6515 29.9086L57.6404 30.728C57.6398 30.8085 57.574 30.8731 57.4935 30.8731Z" fill="black"/>
<path d="M51.7835 30.7903C51.7835 30.7903 53.2536 30.2188 53.9338 29.2238C54.6151 28.2289 54.5904 27.2028 54.5904 27.2028C54.5904 27.2028 55.3775 27.9035 56.6338 27.8876C57.8895 27.8724 58.7506 26.7129 58.6431 25.7215C58.5896 25.2276 57.6922 25.291 57.6922 25.291C57.6922 25.291 56.941 24.0018 55.3528 24C53.7646 23.9977 53.2454 24.8628 53.2454 24.8628C53.2454 24.8628 51.9949 24.6754 50.9659 25.2299C49.9363 25.7849 49.7442 27.1987 49.7442 27.1987C49.7442 27.1987 48.9513 27.4906 48.8297 28.2342C48.7076 28.9772 49.2567 30.4896 49.2567 30.4896C49.2567 30.4896 50.5448 29.0688 51.7835 30.7903Z" fill="black"/>
<path d="M61.0485 56.1301C60.9675 56.1301 60.9017 56.0643 60.9017 55.9833V52.0263L60.9093 51.9788C60.9152 51.9623 61.4796 50.2684 61.6905 47.8333C61.899 45.4269 60.1352 42.5836 60.1176 42.5554C60.0747 42.4861 60.0953 42.3963 60.164 42.3528C60.2321 42.3105 60.3237 42.3305 60.3666 42.3992C60.4412 42.5184 62.1997 45.3553 61.983 47.8586C61.7827 50.1744 61.2647 51.8343 61.1954 52.0498V55.9833C61.1954 56.0643 61.1296 56.1301 61.0485 56.1301Z" fill="#A37B90"/>
<path d="M50.7799 49.7268C50.6419 49.8519 50.602 51.0113 50.6507 52.2371C50.9356 51.2339 51.1394 50.0498 50.8105 49.7491L50.7799 49.7268ZM50.5479 53.1886C50.4592 53.1774 50.407 53.1216 50.4017 53.0523C50.3124 51.8042 50.2302 49.6768 50.6801 49.4589C50.7406 49.4307 50.8639 49.4002 51.0084 49.5324C51.7068 50.1702 50.7929 52.7945 50.6865 53.0911C50.6654 53.1504 50.6096 53.1886 50.5479 53.1886Z" fill="#A37B90"/>
<path d="M52.3613 113.47L52.0629 113.34C51.5725 113.124 51.3499 112.553 51.5648 112.062L74.3485 60.1387L76.4224 61.0485L53.6387 112.972C53.4232 113.462 52.8517 113.686 52.3613 113.47Z" fill="#107CC7"/>
</svg>
