<svg width="139" height="142" viewBox="0 0 139 142" fill="none" xmlns="http://www.w3.org/2000/svg">
<path fill-rule="evenodd" clip-rule="evenodd" d="M97.2134 21.3799C117.389 30.5617 117.95 58.0193 112.596 79.53C108.335 96.6525 92.5732 106.038 75.2763 109.525C52.351 114.145 21.797 121.184 12.5836 99.689C3.66402 78.8792 33.6424 66.5385 50.2605 51.1616C65.3002 37.2451 78.5634 12.8925 97.2134 21.3799Z" fill="#EAF6FF"/>
<path d="M134.834 111.834C134.834 112.755 105.594 113.501 69.5236 113.501C33.454 113.501 4.21387 112.755 4.21387 111.834C4.21387 110.913 33.454 110.167 69.5236 110.167C105.594 110.167 134.834 110.913 134.834 111.834Z" fill="#DDD0D0"/>
<path d="M112.6 98.5204H40.8481C37.7602 98.5204 35.2568 96.017 35.2568 92.9296V54.3589C35.2568 51.2715 37.7602 48.7681 40.8481 48.7681H112.6C115.688 48.7681 118.191 51.2715 118.191 54.3589V92.9296C118.191 96.017 115.688 98.5204 112.6 98.5204Z" fill="#6876AA"/>
<path d="M122.031 94.9962V97.3431C122.031 97.9593 121.951 98.5599 121.795 99.1333C121.008 102.037 118.355 104.175 115.199 104.175H38.2506C35.0946 104.175 32.437 102.037 31.6499 99.1333C31.4945 98.5599 31.4136 97.9593 31.4136 97.3431V94.9962C31.4136 91.2241 34.4731 88.1646 38.2506 88.1646H115.199C118.971 88.1646 122.031 91.2241 122.031 94.9962Z" fill="#107CC7"/>
<path d="M37.5263 112.466H37.1764C36.3165 112.466 35.5883 111.83 35.4736 110.977L34.252 101.913H39.6337L39.2431 110.823C39.2024 111.742 38.4463 112.466 37.5263 112.466Z" fill="#107CC7"/>
<path d="M115.954 112.466H116.303C117.163 112.466 117.892 111.83 118.006 110.977L119.228 101.913H113.846L114.237 110.823C114.278 111.742 115.034 112.466 115.954 112.466Z" fill="#107CC7"/>
<path d="M42.979 85.1153C42.979 89.7201 39.246 93.4532 34.6412 93.4532C30.0358 93.4532 26.3022 89.7201 26.3022 85.1153C26.3022 80.51 30.0358 76.7764 34.6412 76.7764C39.246 76.7764 42.979 80.51 42.979 85.1153Z" fill="#6876AA"/>
<path d="M63.3844 51.3492H41.381C41.3071 51.3492 41.2471 51.2892 41.2471 51.2153C41.2471 51.1413 41.3071 51.0813 41.381 51.0813H63.3844C63.4583 51.0813 63.5183 51.1413 63.5183 51.2153C63.5183 51.2892 63.4583 51.3492 63.3844 51.3492Z" fill="#92B4EA"/>
<path d="M121.795 99.1332C121.007 102.037 118.355 104.175 115.199 104.175H38.2501C35.0942 104.175 32.4365 102.037 31.6494 99.1332H121.795Z" fill="#39476B"/>
<path d="M38.3429 85.1154C38.3429 87.1595 36.6851 88.8168 34.6409 88.8168C32.5962 88.8168 30.939 87.1595 30.939 85.1154C30.939 83.0701 32.5962 81.4134 34.6409 81.4134C36.6851 81.4134 38.3429 83.0701 38.3429 85.1154Z" fill="#107CC7"/>
<path d="M30.6238 83.3787H6.60897C5.28657 83.3787 4.21387 82.3065 4.21387 80.9836C4.21387 79.6601 5.28657 78.588 6.60897 78.588H30.6238C31.9462 78.588 33.0189 79.6601 33.0189 80.9836C33.0189 82.3065 31.9462 83.3787 30.6238 83.3787Z" fill="#B79A9A"/>
<path d="M9.72556 112.679C9.00542 112.679 8.42139 112.095 8.42139 111.375V82.6012C8.42139 81.8816 9.00542 81.2976 9.72556 81.2976C10.4457 81.2976 11.0297 81.8816 11.0297 82.6012V111.375C11.0297 112.095 10.4457 112.679 9.72556 112.679Z" fill="#B79A9A"/>
<path d="M27.7651 112.679C27.045 112.679 26.4609 112.095 26.4609 111.375V82.6012C26.4609 81.8816 27.045 81.2976 27.7651 81.2976C28.4847 81.2976 29.0688 81.8816 29.0688 82.6012V111.375C29.0688 112.095 28.4847 112.679 27.7651 112.679Z" fill="#B79A9A"/>
<path d="M26.2727 70.661H20.21V78.5879H26.2727V70.661Z" fill="#FE922F"/>
<path d="M26.2727 70.6611C26.2727 70.8534 24.9155 71.0094 23.2411 71.0094C21.5672 71.0094 20.21 70.8534 20.21 70.6611C20.21 70.4687 21.5672 70.3128 23.2411 70.3128C24.9155 70.3128 26.2727 70.4687 26.2727 70.6611Z" fill="white"/>
<path d="M26.2724 72.6543C25.3181 72.6543 24.5417 73.727 24.5417 75.0456C24.5417 76.3643 25.3181 77.4375 26.2724 77.4375C27.2261 77.4375 28.002 76.3643 28.002 75.0456C28.002 73.727 27.2261 72.6543 26.2724 72.6543ZM26.2724 77.9733C25.0228 77.9733 24.0059 76.6595 24.0059 75.0456C24.0059 73.4312 25.0228 72.1185 26.2724 72.1185C27.5219 72.1185 28.5378 73.4312 28.5378 75.0456C28.5378 76.6595 27.5219 77.9733 26.2724 77.9733Z" fill="#FE922F"/>
<path d="M88.711 75.7658C88.6429 75.7658 88.6059 75.7921 88.5818 75.8157C88.2271 76.1623 88.5727 77.923 88.9301 79.1881C89.1605 78.4514 89.5752 76.8873 89.2168 76.1393C89.131 75.9609 89.0094 75.8467 88.8433 75.791C88.7892 75.7728 88.7458 75.7658 88.711 75.7658ZM88.9114 80.0502L88.7945 79.6736C88.6858 79.3253 87.754 76.2502 88.3943 75.6244C88.487 75.5344 88.6552 75.4465 88.928 75.537C89.1632 75.6158 89.3416 75.7798 89.4584 76.0236C89.983 77.1188 89.0866 79.5766 89.048 79.6805L88.9114 80.0502Z" fill="#6876AA"/>
<path d="M30.9382 35.8592C30.9382 40.7523 26.9715 44.7184 22.0784 44.7184C17.1859 44.7184 13.2192 40.7523 13.2192 35.8592C13.2192 30.9661 17.1859 27 22.0784 27C26.9715 27 30.9382 30.9661 30.9382 35.8592Z" fill="#D3BCBC"/>
<path d="M96.3789 52.7305C96.3789 52.7305 97.4286 50.1087 102.467 50.2239C107.505 50.3386 108.122 53.39 108.122 53.39L99.3361 56.5599L96.3789 52.7305Z" fill="#68B6D8"/>
<path d="M28.5563 35.8591C28.5563 39.4362 25.657 42.3361 22.0799 42.3361C18.5033 42.3361 15.6035 39.4362 15.6035 35.8591C15.6035 32.282 18.5033 29.3827 22.0799 29.3827C25.657 29.3827 28.5563 32.282 28.5563 35.8591Z" fill="#EAE0E0"/>
<path d="M22.0799 40.7058C21.932 40.7058 21.812 40.5857 21.812 40.4378V35.8593C21.812 35.772 21.8549 35.69 21.9267 35.6396L26.3075 32.5822C26.4281 32.4986 26.5953 32.526 26.6804 32.6487C26.7656 32.7698 26.7356 32.9369 26.614 33.0216L22.3478 35.9991V40.4378C22.3478 40.5857 22.2283 40.7058 22.0799 40.7058Z" fill="#3A4970"/>
<path d="M107.989 91.5499C107.989 93.0598 100.422 94.2836 91.0874 94.2836C81.7529 94.2836 74.1855 93.0598 74.1855 91.5499C74.1855 90.0405 81.7529 88.8167 91.0874 88.8167C100.422 88.8167 107.989 90.0405 107.989 91.5499Z" fill="#364568"/>
<path d="M86.4229 73.7951C86.4229 73.7951 71.6766 63.1612 60.9249 64.1552C50.1743 65.1486 61.3707 92.659 61.3707 92.659L76.0875 92.4565L76.0602 87.595L94.1209 90.3679L87.9087 77.848L86.4229 73.7951Z" fill="#7C576C"/>
<path d="M72.1281 74.9004C72.0761 74.9004 72.0269 74.8704 72.0049 74.82C71.9953 74.797 70.9922 72.5069 69.4496 70.7135C69.4013 70.6573 69.4072 70.5726 69.4635 70.5244C69.5192 70.4762 69.6044 70.4826 69.6527 70.5389C71.2221 72.3639 72.2412 74.6904 72.2508 74.7134C72.2803 74.7815 72.2492 74.8602 72.1812 74.8897L72.1281 74.9004Z" fill="#3A4970"/>
<path d="M108.123 82.636C108.123 82.636 114.194 60.7179 109.082 54.6868C103.97 48.6551 92.1029 53.681 92.1029 53.681L86.4243 73.7951L108.123 82.636Z" fill="#A37B90"/>
<path d="M104.666 48.519L104.57 52.4288C104.57 52.4288 103.838 53.5353 101.546 53.6655C99.8384 53.7625 99.2495 53.3628 99.2495 53.3628L99.5351 51.3877L99.8164 49.4631L103.969 48.6551L104.666 48.519Z" fill="#FFB192"/>
<path d="M79.375 66.2749C79.375 66.2749 89.2828 54.5447 92.7115 53.4431C97.2659 51.9803 92.809 70.6402 92.809 70.6402L85.95 71.1637L79.375 66.2749Z" fill="#A37B90"/>
<path d="M103.905 48.9883C103.892 49.0901 103.849 49.2102 103.782 49.3473C102.865 51.2013 100.486 51.5544 99.5098 51.6187L99.7932 49.7717L103.905 48.9883Z" fill="black"/>
<path d="M89.8341 66.7154L89.8051 66.7121C89.7328 66.6966 89.6872 66.6248 89.7027 66.5525L91.4822 58.4922C91.4978 58.4198 91.5711 58.3737 91.6419 58.3904C91.7137 58.4059 91.7592 58.4777 91.7437 58.55L89.9648 66.6103C89.9508 66.673 89.8957 66.7154 89.8341 66.7154Z" fill="white"/>
<path d="M99.2986 41.1997C99.2986 41.1997 97.2164 45.8501 97.928 48.4799C98.6395 51.1091 101.033 50.718 102.467 50.224C103.901 49.7299 104.573 48.8592 104.573 48.8592C104.573 48.8592 105.905 49.3233 106.809 48.0893C107.714 46.8553 107.176 45.4241 106.417 45.0903C105.657 44.7565 104.745 45.2993 104.745 45.2993L105.468 43.949C105.468 43.949 102.539 37.0268 99.2986 41.1997Z" fill="#FFB192"/>
<path d="M99.4596 47.1195C99.4023 47.1195 99.3492 47.082 99.3315 47.0246C99.0277 46.0323 99.7291 45.0239 99.7591 44.9816C99.802 44.9221 99.885 44.9071 99.9461 44.95C100.006 44.9923 100.021 45.0759 99.9777 45.1364C99.9713 45.1455 99.3229 46.0805 99.5882 46.9459C99.6096 47.0166 99.5694 47.0916 99.4992 47.1136L99.4596 47.1195Z" fill="black"/>
<path d="M104.938 47.4746L104.846 47.4377C104.792 47.3873 104.79 47.3016 104.841 47.2485L106.112 45.9074C106.163 45.8538 106.248 45.8506 106.302 45.902C106.356 45.9534 106.357 46.0381 106.307 46.0917L105.036 47.4328L104.938 47.4746Z" fill="black"/>
<path d="M106.281 47.1179L105.384 46.9812C105.311 46.9695 105.261 46.9014 105.272 46.8285C105.283 46.7551 105.354 46.7064 105.425 46.7166L106.301 46.8516C106.375 46.8628 106.425 46.9309 106.413 47.0043C106.403 47.0707 106.346 47.1179 106.281 47.1179Z" fill="black"/>
<path d="M104.744 45.2992C104.744 45.2992 104.261 45.6143 103.913 45.0661C103.564 44.5169 104.334 42.8998 104.334 42.8998C104.334 42.8998 102.888 43.2245 101.995 42.7444C101.102 42.2643 100.667 40.9478 100.667 40.9478C100.667 40.9478 100.006 42.3169 98.0342 41.7092C96.0624 41.1016 95.6922 38.415 97.8001 37.8717C99.9074 37.3284 101.057 38.2629 101.057 38.2629C101.057 38.2629 101.328 36.3146 103.93 37.2823C106.301 38.1653 106.696 41.1386 106.696 41.1386C106.696 41.1386 108.12 41.2083 108.391 42.7589C108.662 44.309 106.846 45.4262 106.846 45.4262C106.846 45.4262 105.818 44.8207 104.744 45.2992Z" fill="black"/>
<path d="M101.58 45.3822C101.489 45.372 101.438 45.3045 101.447 45.2311L101.559 44.3615C101.569 44.2881 101.635 44.2382 101.71 44.2457C101.783 44.2554 101.835 44.3229 101.825 44.3963L101.713 45.2659C101.704 45.3335 101.646 45.3822 101.58 45.3822Z" fill="black"/>
<path d="M98.9976 45.1691C98.9043 45.1567 98.8545 45.0887 98.8652 45.0153L98.9949 44.1483C99.0061 44.0755 99.0694 44.0213 99.147 44.0358C99.2205 44.0465 99.2708 44.1146 99.2596 44.188L99.1299 45.0549C99.1203 45.1214 99.0629 45.1691 98.9976 45.1691Z" fill="black"/>
<path d="M102.395 43.7164C102.346 43.7164 102.299 43.6896 102.275 43.6435C102.06 43.2218 101.483 43.3376 101.457 43.3413C101.387 43.3569 101.314 43.3102 101.299 43.2379C101.284 43.1661 101.33 43.0948 101.402 43.0798C101.433 43.0729 102.204 42.9159 102.514 43.5214C102.547 43.5873 102.521 43.6676 102.456 43.7019L102.395 43.7164Z" fill="black"/>
<path d="M99.8738 43.1732L99.7629 43.1147C99.6804 42.9931 99.5834 42.9272 99.4661 42.9122C99.1891 42.879 98.8911 43.1351 98.8874 43.1378C98.8327 43.1871 98.747 43.1817 98.6988 43.1255C98.6495 43.0703 98.6549 42.9856 98.7106 42.9369C98.7261 42.9229 99.0964 42.5929 99.4998 42.647C99.6949 42.6711 99.8578 42.7777 99.9848 42.9642C100.026 43.0253 100.01 43.1083 99.9488 43.1501L99.8738 43.1732Z" fill="black"/>
<path d="M75.5249 95.6211C74.959 97.7815 59.8035 98.9035 59.2328 99.0058C58.6627 99.1071 54.2851 98.7534 52.8496 97.9647C51.8118 97.3946 52.6894 93.8481 53.685 92.8412C54.6794 91.8339 57.6929 91.4642 57.6929 91.4642L67.0793 86.2952L76.3345 87.1257C76.3345 87.1257 75.878 94.2756 75.5249 95.6211Z" fill="#FE922F"/>
<path d="M47.2635 95.8927C45.0463 96.1596 38.4392 82.4743 38.1343 81.9808C37.8305 81.4878 36.552 77.286 36.7588 75.6608C36.9083 74.4863 40.5299 74.0014 41.832 74.557C43.1335 75.1127 44.5834 77.78 44.5834 77.78L52.8382 84.6127L55.4631 93.5271C55.4631 93.5271 48.6443 95.7266 47.2635 95.8927Z" fill="#FFCB97"/>
<path d="M103.325 83.0754L103.282 83.0701C103.192 83.046 103.139 82.9543 103.163 82.8649L103.703 80.8288C103.727 80.7387 103.82 80.6846 103.909 80.7087C103.999 80.7329 104.052 80.825 104.029 80.9145L103.488 82.9506C103.468 83.0256 103.4 83.0754 103.325 83.0754Z" fill="#534579"/>
<path d="M98.7991 66.7374C98.7991 66.7374 92.3136 65.3962 91.3046 65.288C90.2962 65.1797 86.4865 69.4299 86.5803 69.8312C86.6752 70.233 88.6813 69.8601 88.6813 69.8601C88.6813 69.8601 90.5684 72.2868 91.2055 72.5462C91.8431 72.805 93.3493 72.3838 93.5057 71.931C93.6617 71.4793 93.1205 70.8262 93.1205 70.8262C93.1205 70.8262 94.3754 72.5842 96.8112 72.6951C99.247 72.8055 99.4239 70.2566 99.4239 70.2566L98.7991 66.7374Z" fill="#FFB192"/>
<path d="M87.3626 77.9643C87.2656 77.9621 87.1922 77.885 87.1949 77.7923L87.2517 75.6243C87.2538 75.5327 87.3288 75.4604 87.4199 75.4604C87.5169 75.4625 87.5903 75.5402 87.5876 75.6324L87.5309 77.8003C87.5287 77.8919 87.4537 77.9643 87.3626 77.9643Z" fill="#534579"/>
<path d="M89.1521 79.3134C89.0589 79.3134 88.9838 79.2379 88.9844 79.1446L88.9892 76.8465C88.9892 76.7538 89.0647 76.6793 89.1574 76.6793C89.2507 76.6793 89.3257 76.7543 89.3252 76.8476L89.3203 79.1457C89.3203 79.2384 89.2448 79.3134 89.1521 79.3134Z" fill="#534579"/>
<path d="M100.57 48.4375C100.472 48.4375 100.37 48.4246 100.263 48.3968C100.192 48.378 100.149 48.3051 100.167 48.2333C100.186 48.1621 100.258 48.1213 100.331 48.1374C101.034 48.3217 101.442 47.6595 101.459 47.6316C101.496 47.5678 101.578 47.5459 101.643 47.5855C101.706 47.623 101.727 47.705 101.689 47.7688C101.537 48.0238 101.131 48.4375 100.57 48.4375Z" fill="black"/>
<path d="M108.123 82.636C108.123 82.636 87.4208 69.7288 77.7375 71.6925C69.9275 73.2769 49.2251 80.1681 49.2251 80.1681L55.8928 95.4592C55.8928 95.4592 79.3868 89.0787 81.3805 89.3011C83.6856 89.5583 96.6578 95.014 101.273 93.5308C105.889 92.0471 108.123 82.636 108.123 82.636Z" fill="#936F83"/>
<path d="M79.3712 85.5124L79.2758 85.5161C78.9216 85.5434 78.8654 85.6929 78.8472 85.7422C78.6055 86.3772 80.0404 88.1154 80.8334 88.9743C80.8431 88.2552 80.79 86.5101 80.0779 85.806C79.8781 85.6094 79.6466 85.5124 79.3712 85.5124ZM80.9567 89.434L80.8602 89.3933C80.5896 89.1136 78.2235 86.6311 78.5964 85.6474C78.6864 85.41 78.9083 85.2761 79.2549 85.2493C79.6493 85.2166 79.989 85.342 80.266 85.6152C81.2562 86.5936 81.0976 89.1988 81.0901 89.3092C81.0869 89.3622 81.0526 89.4072 81.0027 89.426L80.9567 89.434Z" fill="#3A4970"/>
<path d="M106.461 52.6999C106.461 52.6999 123.392 61.0254 119.544 74.3271C116.444 85.0418 97.7798 75.6286 97.7798 75.6286L98.7989 65.5407L108.419 66.5684L106.461 52.6999Z" fill="#A37B90"/>
<path d="M113.84 66.3349C108.498 65.4626 102.54 66.0719 102.481 66.0778C102.408 66.0863 102.341 66.0322 102.334 65.9588C102.326 65.8849 102.38 65.8189 102.453 65.8109C102.513 65.805 108.506 65.192 113.861 66.0686C113.935 66.0804 113.984 66.1495 113.972 66.2224C113.961 66.2883 113.904 66.3349 113.84 66.3349Z" fill="white"/>
<path d="M111.963 64.1579C111.105 64.1579 109.842 65.0201 109.25 65.4637C110.598 65.3839 112.43 65.1256 112.637 64.6696C112.659 64.623 112.674 64.5442 112.564 64.4092C112.447 64.2645 112.287 64.1836 112.076 64.1633L111.963 64.1579ZM108.834 65.7514C108.779 65.7514 108.729 65.7177 108.709 65.6652C108.689 65.6116 108.704 65.5511 108.748 65.5146C108.834 65.4434 110.867 63.7764 112.102 63.8964C112.384 63.9243 112.609 64.04 112.773 64.2399C112.961 64.4708 112.936 64.6616 112.881 64.7811C112.508 65.6019 109.213 65.7386 108.839 65.7514H108.834Z" fill="white"/>
<path d="M126.341 84.5655C126.341 89.1703 122.609 92.9039 118.003 92.9039C113.398 92.9039 109.665 89.1703 109.665 84.5655C109.665 79.9607 113.398 76.2271 118.003 76.2271C122.609 76.2271 126.341 79.9607 126.341 84.5655Z" fill="#6876AA"/>
<path d="M121.706 84.5655C121.706 86.6102 120.048 88.2675 118.004 88.2675C115.959 88.2675 114.302 86.6102 114.302 84.5655C114.302 82.5209 115.959 80.8636 118.004 80.8636C120.048 80.8636 121.706 82.5209 121.706 84.5655Z" fill="#107CC7"/>
<path d="M96.647 52.289L97.0906 52.9642C97.5482 53.6607 98.0771 54.3069 98.6702 54.8926L99.6293 55.8421C99.6293 55.8421 103.479 55.1734 105.404 54.615C107.33 54.0562 108.122 53.3901 108.122 53.3901C108.122 53.3901 106.964 52.0586 106.209 51.7184C105.455 51.3771 104.666 51.2153 104.666 51.2153L100.935 53.0301L98.7983 51.2153L96.647 52.289Z" fill="#68B6D8"/>
<path d="M102.531 58.6549C102.477 58.6549 102.427 58.6222 102.406 58.5692L101.512 56.2475C101.485 56.1783 101.52 56.1007 101.589 56.0744C101.656 56.0471 101.735 56.0814 101.762 56.151L102.656 58.4727C102.683 58.5418 102.649 58.6195 102.579 58.6458L102.531 58.6549Z" fill="white"/>
<path d="M97.2659 57.9408L97.2032 57.9258C97.1378 57.891 97.1132 57.8106 97.1469 57.7447L98.1741 55.7799C98.2084 55.715 98.2898 55.6888 98.3552 55.7231C98.4206 55.7579 98.4457 55.8383 98.4114 55.9042L97.3843 57.869L97.2659 57.9408Z" fill="white"/>
<path d="M93.1197 70.96L93.0067 70.8984L92.3037 69.801C92.264 69.7384 92.2823 69.6558 92.3444 69.6156C92.4071 69.5771 92.4896 69.5942 92.5298 69.6564L93.0887 70.5287L93.4069 69.6815C93.4332 69.6119 93.5098 69.5776 93.58 69.6033C93.6491 69.629 93.684 69.7067 93.6582 69.7758L93.2456 70.8732C93.2274 70.9209 93.1841 70.9536 93.1342 70.9595L93.1197 70.96Z" fill="black"/>
<path d="M88.681 69.9939L88.5979 69.9644C88.5401 69.9184 88.5304 69.8342 88.5765 69.7769L90.8837 66.8771C90.9293 66.8187 91.0145 66.809 91.0713 66.8556C91.1297 66.9017 91.1388 66.9858 91.0927 67.0432L88.786 69.943L88.681 69.9939Z" fill="black"/>
<path d="M98.7642 65.8929L97.9695 73.7463C97.9524 73.92 98.0628 74.0802 98.2326 74.122C98.8879 74.2838 100.45 74.668 100.936 74.7666C101.556 74.8935 102.293 65.9143 101.913 65.8741L99.1505 65.5789C98.9571 65.558 98.7834 65.6989 98.7642 65.8929Z" fill="#68B6D8"/>
<path d="M89.7895 72.6699L72.8952 71.6872L68.7051 60.4935L84.9328 61.4365C85.3379 61.4601 85.6905 61.7205 85.833 62.1004L89.7895 72.6699Z" fill="white"/>
<path d="M88.3221 72.5847L71.4278 71.602L67.6883 61.6111C67.4762 61.0448 67.9166 60.4473 68.5205 60.4822L84.1315 61.3898L88.3221 72.5847Z" fill="#FE922F"/>
<path d="M92.8838 73.7843L71.7302 72.5541C71.4093 72.5359 71.1639 72.2605 71.1826 71.9384C71.2009 71.6169 71.4768 71.3715 71.7983 71.3903L92.9513 72.62C93.2728 72.6393 93.5182 72.9147 93.4994 73.2362C93.4807 73.5577 93.2053 73.8031 92.8838 73.7843Z" fill="black"/>
<path d="M79.4372 66.5921C79.3911 67.3851 78.7117 67.99 77.9187 67.944C77.1268 67.8979 76.5218 67.2179 76.5679 66.426C76.614 65.633 77.2934 65.028 78.0859 65.0741C78.8783 65.1202 79.4833 65.8002 79.4372 66.5921Z" fill="white"/>
</svg>
