<svg width="80" height="80" viewBox="0 0 80 80" fill="none" xmlns="http://www.w3.org/2000/svg">
<rect width="80" height="80" rx="19.4595" fill="white"/>
<rect x="50.5339" y="35.0476" width="13.3333" height="31.4862" rx="6.66667" transform="rotate(90 50.5339 35.0476)" fill="#FE922F"/>
<path fill-rule="evenodd" clip-rule="evenodd" d="M19.0476 25.9829V61.1507C19.0476 65.0893 22.2405 68.2822 26.1791 68.2822C30.1176 68.2822 33.3105 65.0893 33.3105 61.1507V29.9107L32.2968 28.9663C30.3692 29.8204 28.1349 30.1631 25.8131 29.8008L25.8097 29.8002C23.0806 29.3704 20.6817 27.9584 19.0476 25.9829ZM39.0622 25.6508L56.6984 25.6508C60.5206 25.6508 63.6191 22.5524 63.6191 18.7302C63.6191 14.908 60.5206 11.8096 56.6984 11.8096H34.2606C36.3813 13.3319 37.897 15.5669 38.3585 18.1095L38.359 18.1127C38.748 20.2761 38.38 22.3579 37.4629 24.1538L39.0622 25.6508Z" fill="#107CC7"/>
<path fill-rule="evenodd" clip-rule="evenodd" d="M34.5522 25.3785L35.5981 25.3785L41.2118 30.6329C41.7546 31.1387 41.7546 31.9651 41.2118 32.4708C40.6689 32.9765 39.7819 32.9765 39.239 32.4708L33.6122 27.2286V26.2542L33.2547 25.9089C31.4011 27.389 28.8723 28.1537 26.1847 27.7344C22.504 27.1546 19.5648 24.293 19.1147 20.8394C18.4262 15.6219 23.1395 11.2309 28.7399 11.8723C32.4471 12.2916 35.5187 15.0299 36.1409 18.4589C36.5911 20.9627 35.7702 23.3186 34.1815 25.0454L34.5522 25.3785ZM21.6968 19.8282C21.6968 22.8995 24.358 25.3787 27.6547 25.3787C30.9514 25.3787 33.6125 22.8995 33.6125 19.8282C33.6125 16.7569 30.9514 14.2777 27.6547 14.2777C24.358 14.2777 21.6968 16.7569 21.6968 19.8282Z" fill="#FE922F"/>
</svg>
